<?xml version="1.0" encoding="UTF-8"?>
<svg version="1.1" xmlns="http://www.w3.org/2000/svg" width="1024" height="1024">
<path d="M0 0 C1.59770726 1.59770726 1.17060517 3.21751944 1.1875 5.4375 C0.87998932 29.26957781 -4.06227154 54.4550442 -20 73 C-20.51949219 73.66128906 -21.03898438 74.32257813 -21.57421875 75.00390625 C-28.17308803 83.11020954 -36.83922034 88.1983353 -46 93 C-44.02 93.495 -44.02 93.495 -42 94 C-42 94.66 -42 95.32 -42 96 C-41.34 96.33 -40.68 96.66 -40 97 C-40.33 97.33 -40.66 97.66 -41 98 C-41.04063832 99.66617115 -41.042721 101.33388095 -41 103 C-40.09378906 102.66226563 -39.18757812 102.32453125 -38.25390625 101.9765625 C-19.78861528 95.21572581 -3.8574464 93.46731097 14.55151367 101.87695312 C19.36390281 104.13427074 24.10411514 106.44693192 28.69140625 109.13671875 C31.5113548 110.72481256 34.07637147 111.84572027 37.125 112.875 C42.5676649 115.01083365 45.50836931 117.77969654 48.0078125 123.17578125 C48.66626224 124.71821272 49.31738693 126.26379294 49.9609375 127.8125 C51.74739992 131.57347351 54.20713235 135.10356618 58 137 C57.75 138.875 57.75 138.875 57 141 C55.68352881 141.69937532 54.34977849 142.36729133 53 143 C52.67 143.99 52.34 144.98 52 146 C51.34 146 50.68 146 50 146 C49.83322718 149.41656024 49.83322718 149.41656024 50 153 C50.66 153.66 51.32 154.32 52 155 C52.44921875 158.00390625 52.44921875 158.00390625 52.6875 161.5625 C52.77386719 162.73941406 52.86023438 163.91632813 52.94921875 165.12890625 C52.97435547 166.55009766 52.97435547 166.55009766 53 168 C51.43966377 169.56033623 49.91052864 169.20707559 47.75 169.25 C43.72341703 169.21146811 41.17440423 168.66240355 38 166 C38 165.34 38 164.68 38 164 C34.61542745 164.60438796 32.6999822 165.93001365 30 168 C29.34 168 28.68 168 28 168 C27.67 168.66 27.34 169.32 27 170 C10.57157263 179.9085293 -4.68184301 185.41982451 -23.97265625 181.0625 C-38.26126193 177.47752065 -52.75105708 170.16596195 -65 162 C-65 164.31 -65 166.62 -65 169 C-67.45840605 169.02691685 -69.91651882 169.04679802 -72.375 169.0625 C-73.07367187 169.07087891 -73.77234375 169.07925781 -74.4921875 169.08789062 C-79.7734375 169.11328125 -79.7734375 169.11328125 -82 168 C-82 165.36 -82 162.72 -82 160 C-81.34 160 -80.68 160 -80 160 C-80 156.7 -80 153.4 -80 150 C-80.71542969 149.75507812 -81.43085937 149.51015625 -82.16796875 149.2578125 C-85.34583121 147.84640324 -87.63646999 146.08718481 -90.3125 143.875 C-91.19550781 143.15054688 -92.07851563 142.42609375 -92.98828125 141.6796875 C-93.98408203 140.84824219 -93.98408203 140.84824219 -95 140 C-94.90625 138.22265625 -94.90625 138.22265625 -94 136 C-92.46396956 135.1060468 -90.92125202 134.22046117 -89.33862305 133.41186523 C-85.29285981 131.26784172 -81.71524239 129.29192606 -80.29052734 124.7265625 C-79.45733828 119.04820976 -79.79675381 113.81284097 -80 108 C-87.26 108 -94.52 108 -102 108 C-102 107.01 -102 106.02 -102 105 C-105.3 105 -108.6 105 -112 105 C-113.42155248 100.28643126 -112.53203212 96.18706548 -111.5 91.5 C-111.31985352 90.67121338 -111.13970703 89.84242676 -110.95410156 88.98852539 C-106.24963918 68.34566891 -98.87259697 47.01489905 -86 30 C-85.45988281 29.27683594 -84.91976562 28.55367188 -84.36328125 27.80859375 C-71.49414569 11.88576501 -50.0032988 3.08712548 -30.16015625 0.30859375 C-20.26610694 -0.60498182 -9.91251019 -0.62770791 0 0 Z M-79 37 C-89.74383682 48.96936954 -95.82958845 65.1367888 -101.25 80.0625 C-101.71805054 81.32018188 -101.71805054 81.32018188 -102.19555664 82.60327148 C-102.4661792 83.38516846 -102.73680176 84.16706543 -103.015625 84.97265625 C-103.25571289 85.65593994 -103.49580078 86.33922363 -103.74316406 87.04321289 C-104.08002472 89.60969404 -103.34403225 90.83477689 -102 93 C-98.74206811 96.25793189 -88.07486444 94.55967841 -83.69897461 94.59155273 C-71.75130318 94.4880352 -62.39407763 91.72632249 -52 86 C-50.98583008 85.45496826 -50.98583008 85.45496826 -49.95117188 84.89892578 C-32.60384124 75.35100323 -24.57744806 61.37665149 -19.125 42.9375 C-17.27856959 36.56351104 -15.83464818 30.47824506 -16 23.8125 C-16.07528458 20.74935879 -15.9838739 18.95162169 -15 16 C-38.33175259 15.22893841 -62.26040244 19.48695569 -79 37 Z M-105 93 C-104 95 -104 95 -104 95 Z M-106 96 C-105.67 96.99 -105.34 97.98 -105 99 C-104.67 98.01 -104.34 97.02 -104 96 C-104.66 96 -105.32 96 -106 96 Z M-28 109 C-28.33 109.99 -28.66 110.98 -29 112 C-31.64 111.67 -34.28 111.34 -37 111 C-37.33 111.66 -37.66 112.32 -38 113 C-34.7 113 -31.4 113 -28 113 C-28 112.34 -28 111.68 -28 111 C-26 112 -26 112 -24 115 C-24.33 115.33 -24.66 115.66 -25 116 C-25 117.32 -25 118.64 -25 120 C-21.82970778 119.19811973 -21.82970778 119.19811973 -19.625 116.5625 C-17.07572514 114.07392216 -15.34786879 113.05218733 -12 112 C-12 111.34 -12 110.68 -12 110 C-9.69 110.66 -7.38 111.32 -5 112 C-5.33 116.29 -5.66 120.58 -6 125 C-8.041875 125.12375 -8.041875 125.12375 -10.125 125.25 C-14.67620475 125.76523073 -17.46279412 126.96810925 -21 130 C-24.27155424 134.24543501 -24.46826811 138.18416352 -24.51171875 143.36328125 C-24.52966995 144.15526413 -24.54762115 144.94724701 -24.56611633 145.76322937 C-24.62006838 148.27959962 -24.65406563 150.79578185 -24.6875 153.3125 C-24.72068651 155.02411462 -24.75517741 156.73570448 -24.79101562 158.44726562 C-24.87578582 162.63137442 -24.94266843 166.81542893 -25 171 C-22.27852932 171.03557601 -19.55752919 171.06154195 -16.8359375 171.08203125 C-16.07015381 171.09302856 -15.30437012 171.10402588 -14.51538086 171.11535645 C-8.28561174 171.1505056 -2.09726881 170.88003955 2.7265625 166.39453125 C3.14679688 165.93433594 3.56703125 165.47414063 4 165 C3.360625 164.030625 2.72125 163.06125 2.0625 162.0625 C-0.39656284 157.78511605 -0.66690503 153.83864271 -1 149 C-1.31622777 146.99722415 -1.64179815 144.99569601 -2 143 C-0.02 142.505 -0.02 142.505 2 142 C2 141.34 2 140.68 2 140 C9.24953343 135.70945981 16.81451258 134.40688065 25 133 C25 132.34 25 131.68 25 131 C25.66 131 26.32 131 27 131 C26.64978759 128.46096004 26.15988127 127.17906702 24.4375 125.25 C20.98268958 123.47830235 17.76431111 123.42811427 14 124 C11.97084231 124.93942486 9.96124688 125.92598385 8 127 C5.14643942 125.57321971 4.32827311 123.85578718 3 121 C3.75 118.9375 3.75 118.9375 5 117 C5.36141365 115.67400262 5.69890643 114.34098156 6 113 C4.27398621 112.18082358 2.5440353 111.36993984 0.8125 110.5625 C-0.15042969 110.11003906 -1.11335937 109.65757812 -2.10546875 109.19140625 C-7.13467361 107.12135567 -11.64320471 106.84148019 -17.0625 106.8125 C-18.27035156 106.79832031 -19.47820312 106.78414063 -20.72265625 106.76953125 C-23.81005528 106.98664274 -25.51201781 107.20411837 -28 109 Z M-65 108 C-65 110.64 -65 113.28 -65 116 C-63.20601733 115.04600922 -61.41488345 114.08665974 -59.625 113.125 C-58.62726562 112.59132813 -57.62953125 112.05765625 -56.6015625 111.5078125 C-53.94651605 110.1179862 -53.94651605 110.1179862 -52 108 C-56.29 108 -60.58 108 -65 108 Z M-40 112 C-40 112.66 -40 113.32 -40 114 C-40.99515625 114.09023438 -41.9903125 114.18046875 -43.015625 114.2734375 C-47.37777375 114.90381851 -50.88556536 116.57274513 -54.75 118.625 C-55.73806641 119.10259766 -55.73806641 119.10259766 -56.74609375 119.58984375 C-60.61600179 121.62291917 -63.07154885 123.52591599 -64.57373047 127.84570312 C-65.49605967 132.5070049 -65.30198795 137.20826691 -65.1875 141.9375 C-65.17396484 143.00291016 -65.16042969 144.06832031 -65.14648438 145.16601562 C-65.11134724 147.77787588 -65.06215184 150.38866634 -65 153 C-62.13337043 154.66073946 -59.25541234 156.30080058 -56.375 157.9375 C-55.16263672 158.64036133 -55.16263672 158.64036133 -53.92578125 159.35742188 C-49.5431182 161.83380465 -46.06104326 163.38488859 -41 164 C-40.34 164.66 -39.68 165.32 -39 166 C-39 148.18 -39 130.36 -39 112 C-39.33 112 -39.66 112 -40 112 Z M30 132 C31 134 31 134 31 134 Z M-81 135 C-81.33 135.99 -81.66 136.98 -82 138 C-81.34 138 -80.68 138 -80 138 C-80.33 137.01 -80.66 136.02 -81 135 Z M-84 137 C-84 137.66 -84 138.32 -84 139 C-83.34 138.67 -82.68 138.34 -82 138 C-82.66 137.67 -83.32 137.34 -84 137 Z M-82 139 C-81.67 140.32 -81.34 141.64 -81 143 C-80.67 141.68 -80.34 140.36 -80 139 C-80.66 139 -81.32 139 -82 139 Z M14 147 C12.75161619 150.40528996 12.75161619 150.40528996 13 154 C14.92968086 156.22181407 14.92968086 156.22181407 17 158 C23.80743997 154.01486165 29.22511913 150.32349089 34 144 C31.60347472 143.91860858 29.20974564 143.85932991 26.8125 143.8125 C25.80219727 143.77479492 25.80219727 143.77479492 24.77148438 143.73632812 C20.31968603 143.67117986 17.47403596 144.15285774 14 147 Z M-81 162 C-80 166 -80 166 -80 166 Z " fill="#020402" transform="translate(650,377)"/>
<path d="M0 0 C2.00860629 1.0745324 4.03364491 2.11017954 6.06591797 3.13916016 C11.90196097 6.12138026 17.49258253 8.99530345 22.28857422 13.54150391 C26.33885746 17.1792583 31.09942036 20.61880198 35.97607422 23.05712891 C35.96447266 21.76935547 35.95287109 20.48158203 35.94091797 19.15478516 C35.93154152 17.47640118 35.92244117 15.79801565 35.91357422 14.11962891 C35.90519531 13.26949219 35.89681641 12.41935547 35.88818359 11.54345703 C35.88496094 10.73457031 35.88173828 9.92568359 35.87841797 9.09228516 C35.87318115 8.34342041 35.86794434 7.59455566 35.86254883 6.82299805 C35.97607422 5.05712891 35.97607422 5.05712891 36.97607422 4.05712891 C39.32920977 3.98441149 41.6844109 3.97342023 44.03857422 3.99462891 C45.32892578 4.00365234 46.61927734 4.01267578 47.94873047 4.02197266 C48.94775391 4.03357422 49.94677734 4.04517578 50.97607422 4.05712891 C51.30607422 6.03712891 51.63607422 8.01712891 51.97607422 10.05712891 C52.62962891 9.42484375 52.62962891 9.42484375 53.29638672 8.77978516 C58.96323031 3.56677969 63.47833589 2.8169382 71.02685547 2.97509766 C77.37442728 3.24222994 79.57766146 4.42096411 83.97607422 9.05712891 C84.96607422 9.05712891 85.95607422 9.05712891 86.97607422 9.05712891 C87.63607422 9.05712891 88.29607422 9.05712891 88.97607422 9.05712891 C91.00858609 7.86489792 92.94595254 6.55631656 94.90576172 5.24853516 C99.55765592 2.5715017 104.79498456 2.27570069 109.99560547 3.55322266 C114.88734074 5.20874301 118.40209566 7.31296089 121.97607422 11.05712891 C124.14640963 16.78749521 124.24076478 22.06820207 124.17138672 28.14697266 C124.16855682 29.09149796 124.16572693 30.03602325 124.16281128 31.00917053 C124.15168106 34.00445615 124.12658982 36.99943477 124.10107422 39.99462891 C124.09103516 42.03433811 124.08191094 44.07405203 124.07373047 46.11376953 C124.05176518 51.09500631 124.01728498 56.07601568 123.97607422 61.05712891 C122.51833892 61.39306791 121.05986315 61.72579514 119.60107422 62.05712891 C118.78896484 62.24275391 117.97685547 62.42837891 117.14013672 62.61962891 C114.97607422 63.05712891 114.97607422 63.05712891 112.97607422 63.05712891 C112.97607422 62.39712891 112.97607422 61.73712891 112.97607422 61.05712891 C110.99607422 61.05712891 109.01607422 61.05712891 106.97607422 61.05712891 C106.97607422 58.74712891 106.97607422 56.43712891 106.97607422 54.05712891 C107.30607422 54.05712891 107.63607422 54.05712891 107.97607422 54.05712891 C108.02552808 49.6972002 108.06181909 45.33742029 108.0859375 40.97729492 C108.09599243 39.49419307 108.10963826 38.01111103 108.12695312 36.52807617 C108.15122428 34.39578359 108.16256221 32.26375321 108.17138672 30.13134766 C108.18709717 28.20681763 108.18709717 28.20681763 108.203125 26.2434082 C108.22867982 22.90070146 108.22867982 22.90070146 105.97607422 20.05712891 C105.64607422 19.39712891 105.31607422 18.73712891 104.97607422 18.05712891 C101.34607422 18.05712891 97.71607422 18.05712891 93.97607422 18.05712891 C93.31607422 19.37712891 92.65607422 20.69712891 91.97607422 22.05712891 C91.20263672 23.07806641 91.20263672 23.07806641 90.41357422 24.11962891 C87.60073574 27.91084599 87.77007305 31.82834602 87.65966797 36.35009766 C87.62849632 37.40914055 87.62849632 37.40914055 87.59669495 38.48957825 C87.53139931 40.74116441 87.47240775 42.99286553 87.41357422 45.24462891 C87.37036997 46.7726355 87.32675506 48.30063055 87.28271484 49.82861328 C87.17496672 53.5713358 87.07574567 57.3141477 86.97607422 61.05712891 C82.02607422 61.05712891 77.07607422 61.05712891 71.97607422 61.05712891 C71.96672852 59.86112061 71.95738281 58.6651123 71.94775391 57.43286133 C71.90790608 52.99888753 71.84216231 48.56561143 71.76855469 44.13208008 C71.74031474 42.21257484 71.71911527 40.29295266 71.70507812 38.37329102 C71.68369011 35.61494952 71.63706289 32.85801853 71.58544922 30.10009766 C71.58360626 28.81089668 71.58360626 28.81089668 71.58172607 27.49565125 C71.57386709 22.79607314 71.57386709 22.79607314 69.08544922 19.01025391 C66.6157592 17.8943199 64.92496298 17.75056028 62.22607422 17.86962891 C61.42685547 17.89669922 60.62763672 17.92376953 59.80419922 17.95166016 C59.20091797 17.98646484 58.59763672 18.02126953 57.97607422 18.05712891 C57.64607422 18.71712891 57.31607422 19.37712891 56.97607422 20.05712891 C55.97607422 21.39046224 54.97607422 22.72379557 53.97607422 24.05712891 C52.83909369 26.33108997 52.77953782 27.7884082 52.65966797 30.31884766 C52.59694702 31.61665161 52.59694702 31.61665161 52.53295898 32.94067383 C52.49356201 33.865979 52.45416504 34.79128418 52.41357422 35.74462891 C52.36966553 36.6847583 52.32575684 37.6248877 52.28051758 38.59350586 C51.97965683 45.51448063 51.94705667 52.39508654 52.13623047 59.31884766 C51.97607422 62.05712891 51.97607422 62.05712891 49.97607422 64.05712891 C49.97607422 63.39712891 49.97607422 62.73712891 49.97607422 62.05712891 C47.50107422 62.55212891 47.50107422 62.55212891 44.97607422 63.05712891 C44.97607422 62.39712891 44.97607422 61.73712891 44.97607422 61.05712891 C42.33607422 61.05712891 39.69607422 61.05712891 36.97607422 61.05712891 C35.27744278 57.65986602 35.50743323 53.86941331 35.28857422 50.11962891 C35.22863281 49.29527344 35.16869141 48.47091797 35.10693359 47.62158203 C35.03635742 46.43145508 35.03635742 46.43145508 34.96435547 45.21728516 C34.91835205 44.49162354 34.87234863 43.76596191 34.82495117 43.01831055 C34.97607422 41.05712891 34.97607422 41.05712891 36.97607422 38.05712891 C25.78954899 45.39792836 25.78954899 45.39792836 17.97607422 56.05712891 C16.12451172 57.15087891 16.12451172 57.15087891 13.97607422 58.05712891 C13.29029297 58.38712891 12.60451172 58.71712891 11.89794922 59.05712891 C10.82287109 59.55212891 10.82287109 59.55212891 9.72607422 60.05712891 C8.66646484 60.55212891 8.66646484 60.55212891 7.58544922 61.05712891 C4.97607422 62.05712891 4.97607422 62.05712891 1.18701172 62.93603516 C-3.27678253 64.00405315 -7.08149706 65.91359675 -11.14892578 67.99462891 C-26.11558976 75.31933563 -40.99718681 77.3464817 -57.02392578 72.05712891 C-61.82574482 70.01650874 -66.41780482 67.5623126 -71.01757812 65.10791016 C-72.99817661 64.07061448 -74.99658819 63.08688712 -77.01220703 62.11962891 C-77.64586182 61.81379883 -78.2795166 61.50796875 -78.93237305 61.19287109 C-80.66518281 60.35943164 -82.39920207 59.52850817 -84.13330078 58.69775391 C-86.96078916 57.09296321 -88.79821504 55.39238246 -91.02392578 53.05712891 C-92.354992 52.71485474 -93.68792657 52.37961147 -95.02392578 52.05712891 C-95.51892578 50.57212891 -95.51892578 50.57212891 -96.02392578 49.05712891 C-96.68392578 49.05712891 -97.34392578 49.05712891 -98.02392578 49.05712891 C-98.64892578 47.24462891 -98.64892578 47.24462891 -99.02392578 45.05712891 C-98.36392578 44.06712891 -97.70392578 43.07712891 -97.02392578 42.05712891 C-98.01392578 41.72712891 -99.00392578 41.39712891 -100.02392578 41.05712891 C-101.48353961 39.42448246 -102.8729933 37.72800868 -104.21142578 35.99462891 C-104.92685547 35.07552734 -105.64228516 34.15642578 -106.37939453 33.20947266 C-106.92208984 32.49919922 -107.46478516 31.78892578 -108.02392578 31.05712891 C-105.85005779 26.29982359 -102.54522833 22.87017713 -99.02392578 19.05712891 C-98.38583984 18.35330078 -97.74775391 17.64947266 -97.09033203 16.92431641 C-69.24404045 -12.44852046 -35.48127685 -19.14342775 0 0 Z M-55.02392578 4.05712891 C-55.02392578 4.71712891 -55.02392578 5.37712891 -55.02392578 6.05712891 C-54.15767578 6.61400391 -53.29142578 7.17087891 -52.39892578 7.74462891 C-46.40006628 11.60205157 -42.44785796 16.66336512 -40.49658203 23.54541016 C-38.57420545 33.76101465 -40.11677609 43.25942292 -45.96142578 51.93212891 C-48.29194693 54.33327191 -50.62461728 56.72446786 -53.02392578 59.05712891 C-52.03392578 59.38712891 -51.04392578 59.71712891 -50.02392578 60.05712891 C-49.52892578 59.56212891 -49.52892578 59.56212891 -49.02392578 59.05712891 C-49.02392578 59.71712891 -49.02392578 60.37712891 -49.02392578 61.05712891 C-43.61425679 62.85796036 -38.83653442 63.40803437 -33.14892578 63.36962891 C-32.35824707 63.36833984 -31.56756836 63.36705078 -30.75292969 63.36572266 C-24.98948029 63.27071422 -20.33375947 62.41705499 -15.02392578 60.05712891 C-15.74580078 59.47962891 -16.46767578 58.90212891 -17.21142578 58.30712891 C-18.13955078 57.56462891 -19.06767578 56.82212891 -20.02392578 56.05712891 C-20.84892578 55.47962891 -21.67392578 54.90212891 -22.52392578 54.30712891 C-28.17740415 49.21899838 -31.55631916 42.68271379 -32.02392578 35.05712891 C-31.3665715 25.02241457 -29.05173364 16.50466827 -21.52392578 9.61962891 C-18.81548734 7.32394906 -16.26118413 5.52125257 -13.02392578 4.05712891 C-25.9553475 -3.23751925 -41.97756127 -2.8888522 -55.02392578 4.05712891 Z M-79.27392578 21.30712891 C-81.86058191 25.37187426 -83.09370153 29.03921437 -82.92626953 33.88134766 C-81.7036089 38.18447792 -79.43983869 40.37928431 -76.27392578 43.43212891 C-75.48501953 44.25003906 -75.48501953 44.25003906 -74.68017578 45.08447266 C-72.27535995 47.45952592 -70.67379169 48.9629722 -67.27392578 49.45556641 C-64.7703988 49.0122335 -63.100575 48.54044977 -61.02392578 47.05712891 C-60.21863689 45.0071202 -60.21863689 45.0071202 -60.02392578 43.05712891 C-59.36392578 43.05712891 -58.70392578 43.05712891 -58.02392578 43.05712891 C-55.07200914 40.57751893 -54.15622656 38.43869608 -53.78564453 34.56884766 C-53.59414186 27.28166713 -54.6632284 23.66676683 -59.71142578 18.24462891 C-66.91590108 14.54503348 -73.5586403 15.59184342 -79.27392578 21.30712891 Z M-14.83642578 22.11962891 C-17.84593818 27.02988597 -17.59160759 32.48918129 -17.02392578 38.05712891 C-15.54853248 42.30748473 -13.12599057 46.06152982 -9.02392578 48.05712891 C-4.74395389 48.91312328 -1.20570853 49.45105649 2.97607422 48.05712891 C4.68491427 46.43373086 6.35054139 44.76393838 7.97607422 43.05712891 C8.50716797 42.59564453 9.03826172 42.13416016 9.58544922 41.65869141 C12.78918955 37.96899046 12.00761706 31.98764276 11.85107422 27.36962891 C10.53647854 22.39294528 8.18066521 19.3679668 3.66357422 16.68212891 C-4.28802831 14.83291902 -9.30861203 15.82935809 -14.83642578 22.11962891 Z M26.97607422 26.05712891 C26.97607422 29.35712891 26.97607422 32.65712891 26.97607422 36.05712891 C29.94801272 34.93261163 32.31048109 33.83419099 34.97607422 32.05712891 C34.97607422 31.39712891 34.97607422 30.73712891 34.97607422 30.05712891 C32.33607422 28.73712891 29.69607422 27.41712891 26.97607422 26.05712891 Z M-96.02392578 45.05712891 C-95.69392578 47.03712891 -95.36392578 49.01712891 -95.02392578 51.05712891 C-94.03392578 50.72712891 -93.04392578 50.39712891 -92.02392578 50.05712891 C-93.34392578 48.40712891 -94.66392578 46.75712891 -96.02392578 45.05712891 Z " fill="#010101" transform="translate(422.02392578125,484.94287109375)"/>
<path d="M0 0 C0.68900391 0.33644531 1.37800781 0.67289062 2.08789062 1.01953125 C6.8724901 3.49247031 6.8724901 3.49247031 8 6.875 C-9.61233936 7.4209623 -9.61233936 7.4209623 -16.140625 4.62890625 C-25.8312229 0.69973525 -36.42691045 2.83617388 -46 5.875 C-47.33064701 6.21890032 -48.66310542 6.55624967 -50 6.875 C-50 7.535 -50 8.195 -50 8.875 C-49.26007813 9.12121094 -48.52015625 9.36742187 -47.7578125 9.62109375 C-41.84244728 12.31065782 -37.30660186 18.16836753 -35 24.1875 C-32.43467534 33.82842602 -33.56141864 42.99783727 -38 51.875 C-40.39163221 55.57184475 -43.33091968 58.42894645 -47 60.875 C-46.34 60.875 -45.68 60.875 -45 60.875 C-44.01 60.875 -43.02 60.875 -42 60.875 C-42.66 61.865 -43.32 62.855 -44 63.875 C-38.63052021 64.76753321 -33.43925337 65.05793687 -28 65.0625 C-27.23171875 65.07474609 -26.4634375 65.08699219 -25.671875 65.09960938 C-21.93999484 65.10912948 -19.02603393 64.88249076 -15.40234375 63.83984375 C-11.51584271 62.73770166 -8.56882799 62.86844495 -4.5625 63.25 C-3.32628906 63.36085938 -2.09007812 63.47171875 -0.81640625 63.5859375 C0.11300781 63.68132812 1.04242188 63.77671875 2 63.875 C2 64.865 2 65.855 2 66.875 C-14.55921618 75.31498791 -29.77292002 80.69948996 -48.44921875 76.046875 C-54.63011173 74.00697633 -60.26457553 70.98277106 -65.99365234 67.92578125 C-67.97425083 66.88848557 -69.97266241 65.90475822 -71.98828125 64.9375 C-72.62193604 64.63166992 -73.25559082 64.32583984 -73.90844727 64.01074219 C-75.64125703 63.17730273 -77.37527628 62.34637927 -79.109375 61.515625 C-81.93686338 59.9108343 -83.77428925 58.21025356 -86 55.875 C-87.33106622 55.53272583 -88.66400079 55.19748257 -90 54.875 C-90.495 53.39 -90.495 53.39 -91 51.875 C-91.66 51.875 -92.32 51.875 -93 51.875 C-93.625 50.0625 -93.625 50.0625 -94 47.875 C-93.34 46.885 -92.68 45.895 -92 44.875 C-92.99 44.545 -93.98 44.215 -95 43.875 C-96.45961383 42.24235356 -97.84906752 40.54587977 -99.1875 38.8125 C-99.90292969 37.89339844 -100.61835938 36.97429688 -101.35546875 36.02734375 C-101.89816406 35.31707031 -102.44085938 34.60679687 -103 33.875 C-100.82613201 29.11769468 -97.52130255 25.68804823 -94 21.875 C-93.36191406 21.17117188 -92.72382813 20.46734375 -92.06640625 19.7421875 C-66.39440883 -7.3371595 -34.01744827 -16.62529933 0 0 Z M-74.25 24.125 C-76.83665613 28.18974535 -78.06977574 31.85708547 -77.90234375 36.69921875 C-76.67968312 41.00234902 -74.41591291 43.19715541 -71.25 46.25 C-70.46109375 47.06791016 -70.46109375 47.06791016 -69.65625 47.90234375 C-67.25143417 50.27739701 -65.64986591 51.78084329 -62.25 52.2734375 C-59.74647302 51.8301046 -58.07664921 51.35832087 -56 49.875 C-55.19471111 47.82499129 -55.19471111 47.82499129 -55 45.875 C-54.34 45.875 -53.68 45.875 -53 45.875 C-50.04808336 43.39539002 -49.13230078 41.25656717 -48.76171875 37.38671875 C-48.57021608 30.09953822 -49.63930262 26.48463792 -54.6875 21.0625 C-61.8919753 17.36290458 -68.53471451 18.40971451 -74.25 24.125 Z M-91 47.875 C-90.67 49.855 -90.34 51.835 -90 53.875 C-89.01 53.545 -88.02 53.215 -87 52.875 C-88.32 51.225 -89.64 49.575 -91 47.875 Z " fill="#010201" transform="translate(417,482.125)"/>
<path d="M0 0 C3.71710767 1.29769067 6.04162475 3.9439707 8.69970703 6.73022461 C9.27108398 7.31811768 9.84246094 7.90601074 10.43115234 8.51171875 C26.58812637 25.3294122 40.57254166 45.10152345 41.54736328 69.27709961 C41.37206587 71.55169038 40.97271592 73.63333859 40.44970703 75.85522461 C40.21123047 76.93803711 39.97275391 78.02084961 39.72705078 79.13647461 C36.22810497 93.55637252 30.23375224 106.63912074 23.44970703 119.79272461 C22.96373047 120.73954102 22.47775391 121.68635742 21.97705078 122.66186523 C19.0248157 128.27111188 15.76279197 133.46766035 12.06054688 138.61181641 C10.70620386 140.49800282 9.41248863 142.39899625 8.15673828 144.35131836 C7.53154297 145.32198242 6.90634766 146.29264648 6.26220703 147.29272461 C5.62927734 148.28143555 4.99634766 149.27014648 4.34423828 150.28881836 C2.53503737 152.73963279 0.9016429 154.10956844 -1.55029297 155.85522461 C-6.36585654 149.87895002 -10.7188893 143.7674734 -14.73779297 137.23022461 C-15.29023682 136.33287598 -15.84268066 135.43552734 -16.41186523 134.51098633 C-30.88301005 110.67301175 -47.72121324 82.92697898 -41.05029297 54.04272461 C-36.2129811 35.30929728 -23.85302015 21.02244905 -10.67529297 7.41772461 C-9.94963135 6.65282715 -9.22396973 5.88792969 -8.47631836 5.09985352 C-7.43399048 4.0525708 -7.43399048 4.0525708 -6.37060547 2.98413086 C-5.75459473 2.35579346 -5.13858398 1.72745605 -4.50390625 1.08007812 C-2.55029297 -0.14477539 -2.55029297 -0.14477539 0 0 Z M-1.55029297 19.85522461 C-16.65254681 35.07951686 -30.48623979 52.49464718 -31.71044922 74.76928711 C-31.07648272 93.17967426 -20.57792483 110.82220689 -12.55029297 126.85522461 C-12.16647461 127.62302246 -11.78265625 128.39082031 -11.38720703 129.18188477 C-11.11102539 129.73408691 -10.83484375 130.28628906 -10.55029297 130.85522461 C-9.89029297 130.85522461 -9.23029297 130.85522461 -8.55029297 130.85522461 C-8.44845703 131.5706543 -8.34662109 132.28608398 -8.24169922 133.02319336 C-7.46596519 136.200635 -6.22045214 138.40284296 -4.48779297 141.16772461 C-3.93994141 142.05073242 -3.39208984 142.93374023 -2.82763672 143.84350586 C-2.19535156 144.83930664 -2.19535156 144.83930664 -1.55029297 145.85522461 C1.3982035 143.10791501 3.43316898 140.48204416 5.36767578 136.95288086 C5.89562744 135.99027344 6.4235791 135.02766602 6.9675293 134.03588867 C7.51852295 133.00689453 8.0695166 131.97790039 8.63720703 130.91772461 C9.20947021 129.85392578 9.7817334 128.79012695 10.37133789 127.6940918 C15.68871658 117.65983983 20.29074382 107.41695779 24.44970703 96.85522461 C24.91248047 95.70666992 25.37525391 94.55811523 25.85205078 93.37475586 C30.35917618 81.23278458 31.04137072 68.06865259 25.88330078 56.07397461 C19.54427493 42.26199158 10.10988012 30.60154051 -0.55029297 19.85522461 C-0.88029297 19.85522461 -1.21029297 19.85522461 -1.55029297 19.85522461 Z " fill="#17693C" transform="translate(512.55029296875,315.144775390625)"/>
<path d="M0 0 C4.32841447 1.89954456 6.20743548 4.79808547 8.6875 8.6875 C9.12030273 9.35233398 9.55310547 10.01716797 9.99902344 10.70214844 C16.35228711 20.53513117 22.36858632 30.55722009 27.80859375 40.92578125 C28.95288944 43.12686757 28.95288944 43.12686757 31 45 C31 45.99 31 46.98 31 48 C31.66 48.33 32.32 48.66 33 49 C35 54.22222222 35 54.22222222 35 57 C35.66 57.33 36.32 57.66 37 58 C37.33333333 60 37.66666667 62 38 64 C38.66 64.33 39.32 64.66 40 65 C40.59765625 67.07421875 40.59765625 67.07421875 41.0625 69.6875 C41.29646484 70.96173828 41.29646484 70.96173828 41.53515625 72.26171875 C41.76525391 73.61716797 41.76525391 73.61716797 42 75 C42.17789063 75.97710938 42.35578125 76.95421875 42.5390625 77.9609375 C45.25884392 95.89305567 39.14070092 113.53950969 28.796875 128.1015625 C26.60917561 130.81706349 24.3446441 133.41929105 22 136 C21.24460937 136.86238281 20.48921875 137.72476563 19.7109375 138.61328125 C9.64047192 150.01609365 9.64047192 150.01609365 5 154 C4.34 154 3.68 154 3 154 C3 154.66 3 155.32 3 156 C-14.3777169 147.97951528 -29.31456138 125.22275246 -36 108 C-43.01998855 88.26664637 -39.50387812 70.60979932 -30.97387695 52.05908203 C-22.23607222 33.73826964 -11.8611735 16.45596193 0 0 Z M1 10 C-8.88799473 24.68117228 -17.14480945 41.65913358 -23.75 58.0625 C-24.06050293 58.82739746 -24.37100586 59.59229492 -24.69091797 60.38037109 C-30.19139657 74.62890123 -29.94944469 87.85529376 -24 102 C-22.04068688 106.02421797 -20.18056264 109.81943736 -17 113 C-16.1522018 114.30320332 -15.32119943 115.61737418 -14.5 116.9375 C-11.89409224 120.8591357 -9.06627557 124.48825709 -6 128.0625 C-5.195625 129.00222656 -4.39125 129.94195313 -3.5625 130.91015625 C-1.14539966 133.19501059 -1.14539966 133.19501059 1.953125 133.68359375 C6.21280486 132.72789634 8.13592337 130.27937484 10.75 127 C11.26369141 126.37569092 11.77738281 125.75138184 12.30664062 125.1081543 C24.56031659 109.85716271 33.806927 94.10277418 31.6640625 73.8203125 C27.33598183 51.73023841 14.37162734 28.59971308 2 10 C1.67 10 1.34 10 1 10 Z " fill="#3E9C4D" transform="translate(510,560)"/>
<path d="M0 0 C1.35509066 4.4598863 0.43048858 8.28173899 -0.5 12.75 C-0.67797119 13.6167334 -0.85594238 14.4834668 -1.03930664 15.37646484 C-2.57051485 22.53478396 -4.42737353 29.5873629 -6.4375 36.625 C-6.71335937 37.60694336 -6.98921875 38.58888672 -7.2734375 39.60058594 C-9.20011733 46.13753536 -11.77664002 52.00383548 -15 58 C-15.76957031 59.50046875 -15.76957031 59.50046875 -16.5546875 61.03125 C-27.13158884 80.80817795 -42.11504625 95.26134827 -63.64770508 102.33569336 C-75.21331371 105.60191246 -85.99839064 106.40467405 -97.9375 106.1875 C-99.4107933 106.17239513 -100.88410193 106.15871719 -102.35742188 106.14648438 C-105.9052762 106.11400863 -109.45253307 106.06256273 -113 106 C-113.25551195 76.4315898 -107.31784717 49.785532 -86.8125 27.3125 C-70.12900469 11.5515943 -46.74352117 5.17745615 -24.6875 1.6875 C-23.61467773 1.51589355 -22.54185547 1.34428711 -21.43652344 1.16748047 C-14.24702398 0.10707906 -7.26234862 -0.19773117 0 0 Z M-22.8125 8.6875 C-23.55024658 8.86684082 -24.28799316 9.04618164 -25.0480957 9.23095703 C-42.67182732 13.59065916 -59.74124433 18.18759947 -74 30 C-74.96679688 30.77923828 -74.96679688 30.77923828 -75.953125 31.57421875 C-91.10604829 45.12311638 -94.44609351 66.97600867 -96.91748047 85.9855957 C-97.12782969 88.2078322 -97.12782969 88.2078322 -96 91 C-73.65767921 90.6219794 -51.75638689 87.66624502 -35.09765625 71.2578125 C-34.40542969 70.51273438 -33.71320313 69.76765625 -33 69 C-32.37996094 68.33742188 -31.75992188 67.67484375 -31.12109375 66.9921875 C-19.65279369 53.49705141 -8.40098109 28.75591251 -7 11 C-7.85120856 8.73677005 -7.85120856 8.73677005 -9 7 C-13.82544355 6.7973764 -18.15510207 7.53679154 -22.8125 8.6875 Z " fill="#3C9A4D" transform="translate(485,549)"/>
<path d="M0 0 C21.0771787 0.18954814 41.92517061 5.02571221 58.50537109 18.71191406 C60.52937822 20.41414954 60.52937822 20.41414954 63.48193359 22.06347656 C64.12130859 22.45535156 64.76068359 22.84722656 65.41943359 23.25097656 C65.41943359 23.91097656 65.41943359 24.57097656 65.41943359 25.25097656 C66.07943359 25.58097656 66.73943359 25.91097656 67.41943359 26.25097656 C79.81661156 40.26017148 93.41943359 66.32168279 93.41943359 85.25097656 C94.07943359 85.25097656 94.73943359 85.25097656 95.41943359 85.25097656 C95.39880859 85.97285156 95.37818359 86.69472656 95.35693359 87.43847656 C95.41836447 90.20286589 95.86615378 92.54605304 96.41943359 95.25097656 C96.66893474 96.81035874 96.8965783 98.37333303 97.10693359 99.93847656 C97.26742187 101.08896484 97.26742187 101.08896484 97.43115234 102.26269531 C97.41943359 104.25097656 97.41943359 104.25097656 95.41943359 106.25097656 C68.95878225 109.75843132 35.46230793 98.88360285 14.41943359 83.25097656 C12.72230545 81.61533857 11.05117097 79.95185536 9.41943359 78.25097656 C8.85740234 77.75855469 8.29537109 77.26613281 7.71630859 76.75878906 C-8.20491651 62.52617874 -14.72024427 38.3049494 -16.33056641 17.75097656 C-16.43645537 15.58529505 -16.52133149 13.41843593 -16.58056641 11.25097656 C-16.60892578 10.24421875 -16.63728516 9.23746094 -16.66650391 8.20019531 C-16.73525762 3.33930792 -16.73525762 3.33930792 -16.58056641 1.25097656 C-13.6085035 -1.72108634 -4.01396913 0.00109477 0 0 Z M-0.58056641 16.25097656 C0.40943359 16.74597656 0.40943359 16.74597656 1.41943359 17.25097656 C1.25185547 17.78464844 1.08427734 18.31832031 0.91162109 18.86816406 C-2.27552042 34.29797617 5.37502286 54.38630384 13.41943359 67.25097656 C16.1612447 70.86102785 18.94197198 74.32613481 22.41943359 77.25097656 C23.40943359 77.25097656 24.39943359 77.25097656 25.41943359 77.25097656 C25.74943359 78.24097656 26.07943359 79.23097656 26.41943359 80.25097656 C28.48849809 81.65891986 30.46431661 82.84224036 32.66943359 84.00097656 C33.6589502 84.52159668 33.6589502 84.52159668 34.66845703 85.05273438 C51.89377005 93.74847117 71.30321971 98.32424354 90.41943359 100.25097656 C90.08943359 98.93097656 89.75943359 97.61097656 89.41943359 96.25097656 C89.08943359 96.58097656 88.75943359 96.91097656 88.41943359 97.25097656 C88.08943359 96.59097656 87.75943359 95.93097656 87.41943359 95.25097656 C88.07943359 95.25097656 88.73943359 95.25097656 89.41943359 95.25097656 C88.22966586 88.22291553 86.38482596 81.76073153 83.79443359 75.12597656 C83.44251953 74.21799316 83.09060547 73.31000977 82.72802734 72.37451172 C74.76756533 52.21485413 65.05517519 32.91253208 44.31542969 23.57568359 C29.52023391 17.32518746 15.25568609 16.07800779 -0.58056641 16.25097656 Z " fill="#1E7340" transform="translate(388.58056640625,376.7490234375)"/>
<path d="M0 0 C0.87454834 0.00523682 1.74909668 0.01047363 2.65014648 0.01586914 C3.59438477 0.0190918 4.53862305 0.02231445 5.51147461 0.02563477 C6.50469727 0.03401367 7.49791992 0.04239258 8.52124023 0.05102539 C9.51833008 0.05553711 10.51541992 0.06004883 11.54272461 0.06469727 C14.01478872 0.07652532 16.48673541 0.0930069 18.95874023 0.11352539 C18.95874023 0.77352539 18.95874023 1.43352539 18.95874023 2.11352539 C19.60560791 2.15018311 20.25247559 2.18684082 20.91894531 2.22460938 C43.37413558 3.83924353 65.53936863 11.74915319 82.95874023 26.11352539 C83.5890918 26.63043945 84.21944336 27.14735352 84.86889648 27.67993164 C101.49035469 42.78690618 109.179932 67.89350931 110.85180664 89.63842773 C111.08889708 95.12615126 111.00665131 100.62214129 110.95874023 106.11352539 C77.58838891 106.97171445 77.58838891 106.97171445 62.95874023 102.11352539 C62.29358398 101.89390137 61.62842773 101.67427734 60.94311523 101.44799805 C39.60457376 94.14388974 23.92179121 80.24536522 13.8215332 60.23730469 C5.67512075 43.23775937 -4.54301329 20.41105813 -3.04125977 1.11352539 C-2.04125977 0.11352539 -2.04125977 0.11352539 0 0 Z M3.95874023 6.11352539 C4.51826378 10.92848625 4.51826378 10.92848625 5.93139648 15.53930664 C6.94628585 18.08231839 7.48293454 20.43395925 8.02124023 23.11352539 C13.05963313 43.69968628 24.24328542 67.47997287 42.78295898 78.87915039 C59.66254506 88.4553608 75.87199854 90.40314715 94.95874023 91.11352539 C93.55561295 68.3731866 89.09603763 46.38558464 71.95874023 30.11352539 C55.20222505 15.86185011 25.87444222 6.11352539 3.95874023 6.11352539 Z " fill="#3F9E4F" transform="translate(540.041259765625,548.886474609375)"/>
<path d="M0 0 C6.414375 -0.0825 12.82875 -0.165 19.4375 -0.25 C21.44384521 -0.28641602 23.45019043 -0.32283203 25.51733398 -0.36035156 C27.13524308 -0.37205091 28.75316409 -0.38223977 30.37109375 -0.390625 C31.59753601 -0.4213208 31.59753601 -0.4213208 32.84875488 -0.45263672 C39.75936691 -0.45675569 45.80227837 1.30626711 51.15625 5.81640625 C51.5996875 6.39261719 52.043125 6.96882813 52.5 7.5625 C52.9640625 8.14128906 53.428125 8.72007812 53.90625 9.31640625 C56.79678422 13.76576428 56.56391762 18.90277062 56 24 C54.93606742 27.15927577 53.58502005 30.0705433 52 33 C51.34 33 50.68 33 50 33 C49.34 34.32 48.68 35.64 48 37 C48.763125 37.28875 49.52625 37.5775 50.3125 37.875 C54.33123878 39.55726275 55.75999204 40.50220571 57.6875 44.5 C59.84328306 50.829746 60.1534393 57.13948214 57.375 63.3125 C53.64928775 69.77387509 48.08979366 73.09233092 41 75 C37.73956117 75.36899416 34.52782869 75.35255142 31.25 75.29296875 C30.05310547 75.28843689 30.05310547 75.28843689 28.83203125 75.28381348 C25.88788682 75.26826934 22.94392864 75.22638684 20 75.1875 C10.1 75.0946875 10.1 75.0946875 0 75 C0 50.25 0 25.5 0 0 Z M15 14 C14.90024968 16.51136104 14.86117817 18.98903415 14.875 21.5 C14.87113281 22.20253906 14.86726562 22.90507812 14.86328125 23.62890625 C14.55609069 27.10428808 14.55609069 27.10428808 16 30 C18.94863292 30.12717273 21.86342268 30.18521566 24.8125 30.1875 C26.04323242 30.20586914 26.04323242 30.20586914 27.29882812 30.22460938 C28.09353516 30.22654297 28.88824219 30.22847656 29.70703125 30.23046875 C30.4338208 30.23457764 31.16061035 30.23868652 31.90942383 30.24291992 C34.29740718 29.965442 35.92336632 29.18192164 38 28 C38 27.34 38 26.68 38 26 C38.66 26 39.32 26 40 26 C40.08131463 24.56344146 40.13933559 23.1255517 40.1875 21.6875 C40.22230469 20.88699219 40.25710938 20.08648437 40.29296875 19.26171875 C40.18434168 16.94170087 40.18434168 16.94170087 38.67578125 15.26953125 C35.83082534 13.11426162 33.247947 12.87249298 29.8046875 12.8671875 C29.00675781 12.86589844 28.20882813 12.86460937 27.38671875 12.86328125 C26.55785156 12.86714844 25.72898438 12.87101562 24.875 12.875 C24.03839844 12.87113281 23.20179688 12.86726563 22.33984375 12.86328125 C18.35284244 12.46850047 18.35284244 12.46850047 15 14 Z M15 44 C14.91368126 45.34267413 14.89293527 46.68974322 14.90234375 48.03515625 C14.90556641 48.84404297 14.90878906 49.65292969 14.91210938 50.48632812 C14.92048828 51.33646484 14.92886719 52.18660156 14.9375 53.0625 C14.94201172 53.91650391 14.94652344 54.77050781 14.95117188 55.65039062 C14.96299627 57.76695663 14.98093231 59.88348685 15 62 C18.39537852 62.14575327 21.78994902 62.23421542 25.1875 62.3125 C26.14720703 62.35439453 27.10691406 62.39628906 28.09570312 62.43945312 C34.0125453 62.57224966 34.0125453 62.57224966 39.05078125 59.66796875 C42.16630507 55.40363454 43.5452587 53.34353524 43 48 C41.22015595 44.8640843 40.47691793 44.15897264 37 43 C35.38486949 42.90721665 33.76622945 42.86931497 32.1484375 42.8671875 C31.21515625 42.86589844 30.281875 42.86460937 29.3203125 42.86328125 C27.86238281 42.86908203 27.86238281 42.86908203 26.375 42.875 C25.3953125 42.87113281 24.415625 42.86726562 23.40625 42.86328125 C22.01019531 42.86521484 22.01019531 42.86521484 20.5859375 42.8671875 C19.7304834 42.86831543 18.8750293 42.86944336 17.99365234 42.87060547 C16.00024114 42.7798172 16.00024114 42.7798172 15 44 Z " fill="#000101" transform="translate(228,471)"/>
<path d="M0 0 C1.59770726 1.59770726 1.17060517 3.21751944 1.1875 5.4375 C0.87998932 29.26957781 -4.06227154 54.4550442 -20 73 C-20.51949219 73.66128906 -21.03898438 74.32257813 -21.57421875 75.00390625 C-29.1346345 84.29140998 -41.13991603 92.55724657 -53 95 C-54.44098431 95.07766084 -55.88508629 95.10796367 -57.328125 95.09765625 C-58.12734375 95.09443359 -58.9265625 95.09121094 -59.75 95.08789062 C-60.575 95.07951172 -61.4 95.07113281 -62.25 95.0625 C-63.09046875 95.05798828 -63.9309375 95.05347656 -64.796875 95.04882812 C-66.86461401 95.03707961 -68.93231624 95.01914522 -71 95 C-71 94.34 -71 93.68 -71 93 C-70.04130005 92.60844727 -70.04130005 92.60844727 -69.06323242 92.20898438 C-51.94358619 85.46662035 -51.94358619 85.46662035 -37 75 C-36.35546875 74.42378906 -35.7109375 73.84757812 -35.046875 73.25390625 C-24.35546546 62.44628574 -17.11301083 41.07601477 -16.97265625 26.078125 C-17.03288533 24.18221816 -17.09541042 22.28638296 -17.16015625 20.390625 C-17 18 -17 18 -15 16 C-38.2920666 16.82676858 -62.21315972 20.41514355 -79 38 C-89.17713657 49.47911566 -95.0675594 65.71907857 -100.125 80 C-100.42019531 80.82999512 -100.71539063 81.65999023 -101.01953125 82.51513672 C-102.37114753 86.49828397 -103.24166022 89.74678006 -103 94 C-104 96 -104 96 -105 97 C-104.34 97.33 -103.68 97.66 -103 98 C-103 99.98 -103 101.96 -103 104 C-107.455 104.495 -107.455 104.495 -112 105 C-113.42155248 100.28643126 -112.53203212 96.18706548 -111.5 91.5 C-111.31985352 90.67121338 -111.13970703 89.84242676 -110.95410156 88.98852539 C-106.24963918 68.34566891 -98.87259697 47.01489905 -86 30 C-85.45988281 29.27683594 -84.91976562 28.55367188 -84.36328125 27.80859375 C-71.49414569 11.88576501 -50.0032988 3.08712548 -30.16015625 0.30859375 C-20.26610694 -0.60498182 -9.91251019 -0.62770791 0 0 Z " fill="#1B7140" transform="translate(650,377)"/>
<path d="M0 0 C2.24842239 3.14320273 3.79988763 6.57367364 5.4375 10.0625 C7.49713499 13.93461378 9.97725405 17.98862703 14 20 C13.75 21.875 13.75 21.875 13 24 C11.68352881 24.69937532 10.34977849 25.36729133 9 26 C8.67 26.99 8.34 27.98 8 29 C7.34 29 6.68 29 6 29 C5.83322718 32.41656024 5.83322718 32.41656024 6 36 C6.66 36.66 7.32 37.32 8 38 C8.44921875 41.00390625 8.44921875 41.00390625 8.6875 44.5625 C8.77386719 45.73941406 8.86023438 46.91632812 8.94921875 48.12890625 C8.96597656 49.07636719 8.98273437 50.02382813 9 51 C7.43966377 52.56033623 5.91052864 52.20707559 3.75 52.25 C-0.27658297 52.21146811 -2.82559577 51.66240355 -6 49 C-6 48.34 -6 47.68 -6 47 C-9.38457255 47.60438796 -11.3000178 48.93001365 -14 51 C-14.66 51 -15.32 51 -16 51 C-16.33 51.66 -16.66 52.32 -17 53 C-34.68342951 52.95981039 -34.68342951 52.95981039 -40.75 47.5703125 C-42 46 -42 46 -43 43 C-43.66 42.67 -44.32 42.34 -45 42 C-46.0526825 36.72665655 -47.44286787 28.88573575 -45 24 C-43 23 -43 23 -40 22 C-39.67 21.34 -39.34 20.68 -39 20 C-33.76200302 17.71432859 -28.73434103 16.44288825 -23.1015625 15.52734375 C-20.79812048 15.14061759 -20.79812048 15.14061759 -19 13 C-18.34 13.33 -17.68 13.66 -17 14 C-18.86566488 10.37206002 -18.86566488 10.37206002 -22 8 C-28.10701533 7.67438314 -28.10701533 7.67438314 -34 9 C-34.33 9.66 -34.66 10.32 -35 11 C-36.8125 10.875 -36.8125 10.875 -39 10 C-40.875 7.1875 -40.875 7.1875 -42 4 C-41.14010916 0.99038204 -39.46076564 -1.08607117 -37 -3 C-34.5 -3.625 -34.5 -3.625 -32 -4 C-31.01 -4.33 -30.02 -4.66 -29 -5 C-18.53260954 -6.33196871 -8.4498742 -7.27082199 0 0 Z M-14 15 C-13 17 -13 17 -13 17 Z M-30 30 C-31.24838381 33.40528996 -31.24838381 33.40528996 -31 37 C-29.07031914 39.22181407 -29.07031914 39.22181407 -27 41 C-20.19256003 37.01486165 -14.77488087 33.32349089 -10 27 C-12.39652528 26.91860858 -14.79025436 26.85932991 -17.1875 26.8125 C-18.19780273 26.77479492 -18.19780273 26.77479492 -19.22851562 26.73632812 C-23.68031397 26.67117986 -26.52596404 27.15285774 -30 30 Z " fill="#010302" transform="translate(694,494)"/>
<path d="M0 0 C4.62 0 9.24 0 14 0 C14.33 14.52 14.66 29.04 15 44 C25.21683018 33.19169338 25.21683018 33.19169338 35 22 C37.03637695 21.31884766 37.03637695 21.31884766 38.98828125 21.4140625 C39.69404297 21.43339844 40.39980469 21.45273437 41.12695312 21.47265625 C41.84818359 21.52292969 42.56941406 21.57320313 43.3125 21.625 C44.05306641 21.65207031 44.79363281 21.67914063 45.55664062 21.70703125 C47.37235998 21.77731716 49.18656801 21.88492911 51 22 C48.2267659 27.16129679 44.40353406 30.9977701 40.3828125 35.18359375 C36.64782373 39.1322759 33.74528814 42.76413559 32 48 C33.52467544 50.37374619 35.08062253 52.53489337 36.8125 54.75 C37.82827612 56.08906021 38.84122105 57.43027202 39.8515625 58.7734375 C40.37266602 59.4653418 40.89376953 60.15724609 41.43066406 60.87011719 C43.95772373 64.29981048 46.33124325 67.82661262 48.6875 71.375 C49.12102783 72.02307617 49.55455566 72.67115234 50.0012207 73.33886719 C53 77.86850895 53 77.86850895 53 79 C47.39 79 41.78 79 36 79 C36 78.34 36 77.68 36 77 C35.01 77 34.02 77 33 77 C33 75.35 33 73.7 33 72 C32.34 72 31.68 72 31 72 C30.59007812 71.24074219 30.18015625 70.48148438 29.7578125 69.69921875 C29.21898437 68.70535156 28.68015625 67.71148438 28.125 66.6875 C27.32449219 65.20830078 27.32449219 65.20830078 26.5078125 63.69921875 C24.99277874 60.90413542 24.99277874 60.90413542 23 58 C20.17646561 58.30524696 18.4731675 58.55413063 16.375 60.53125 C14.44627606 63.99418617 14.4322156 67.37805535 14.3125 71.25 C14.27833984 71.99507812 14.24417969 72.74015625 14.20898438 73.5078125 C14.12685946 75.33802492 14.06174347 77.16898669 14 79 C11.68756208 79.02685412 9.3750373 79.04632841 7.0625 79.0625 C5.77472656 79.07410156 4.48695313 79.08570313 3.16015625 79.09765625 C0 79 0 79 -1 78 C-1.0995971 75.82851507 -1.12799754 73.65374781 -1.12939453 71.47998047 C-1.13114685 70.79857498 -1.13289917 70.11716949 -1.13470459 69.41511536 C-1.13912618 67.14911391 -1.13618212 64.88318982 -1.1328125 62.6171875 C-1.13348592 61.04354843 -1.13445626 59.46990946 -1.13571167 57.89627075 C-1.13718944 54.58904027 -1.13503331 51.28183673 -1.13037109 47.97460938 C-1.12470174 43.7480038 -1.12793447 39.52146211 -1.13394356 35.29485893 C-1.13757103 32.03994269 -1.13640008 28.78504138 -1.13381577 25.53012466 C-1.13315108 23.97290158 -1.13395884 22.41567713 -1.13629532 20.85845566 C-1.13885461 18.67106335 -1.13493419 16.48377161 -1.12939453 14.29638672 C-1.12859894 13.05363983 -1.12780334 11.81089294 -1.12698364 10.53048706 C-0.99844116 6.95665997 -0.57014636 3.52808789 0 0 Z " fill="#000101" transform="translate(770,467)"/>
<path d="M0 0 C2.2137214 1.05227579 4.4204618 2.11628073 6.625 3.1875 C7.55119141 3.62545898 7.55119141 3.62545898 8.49609375 4.07226562 C12.8936002 6.22472931 16.42300297 8.63880973 20 12 C20.8125 14.75 20.8125 14.75 21 17 C21.33 17.33 21.66 17.66 22 18 C22.04080783 19.99958364 22.04254356 22.00045254 22 24 C22.66 24 23.32 24 24 24 C24.69223434 35.19112185 22.39587902 45.22814349 15 54 C13.109375 55.08984375 13.109375 55.08984375 11 56 C10.31421875 56.34160156 9.6284375 56.68320312 8.921875 57.03515625 C3.85599606 59.43142632 -0.40859665 60.59335248 -6 61 C-6 60.34 -6 59.68 -6 59 C-7.918125 59.1546875 -7.918125 59.1546875 -9.875 59.3125 C-16.65641047 59.28051221 -21.99486193 56.59355255 -27.08203125 52.203125 C-31.42034421 47.63647978 -33.51662489 43.07042737 -35 37 C-35.20496094 36.37222656 -35.40992188 35.74445312 -35.62109375 35.09765625 C-36.82757672 28.41846705 -34.03123658 20.38388641 -32 14 C-31.34 14 -30.68 14 -30 14 C-29.79375 13.443125 -29.5875 12.88625 -29.375 12.3125 C-27.4824414 9.12956054 -24.88455209 7.28360374 -22 5 C-21.34 4.34 -20.68 3.68 -20 3 C-15.98212483 1.67860488 -11.93259204 1.8894667 -7.75 1.9375 C-7.00492187 1.94201172 -6.25984375 1.94652344 -5.4921875 1.95117188 C-3.6614236 1.96290754 -1.83070127 1.9808415 0 2 C0 1.34 0 0.68 0 0 Z M-17.8125 20.0625 C-20.8220124 24.97275707 -20.56768181 30.43205239 -20 36 C-18.5246067 40.25035582 -16.10206479 44.00440091 -12 46 C-7.72002811 46.85599438 -4.18178275 47.39392758 0 46 C1.70884005 44.37660195 3.37446717 42.70680947 5 41 C5.53109375 40.53851562 6.0621875 40.07703125 6.609375 39.6015625 C9.81311533 35.91186156 9.03154284 29.93051385 8.875 25.3125 C7.56040432 20.33581637 5.204591 17.31083789 0.6875 14.625 C-7.26410253 12.77579011 -12.28468625 13.77222918 -17.8125 20.0625 Z " fill="#010201" transform="translate(425,487)"/>
<path d="M0 0 C1.92451547 2.80561894 2.44485348 5.6691209 3 9 C1.42274653 9.70133599 -0.16211333 10.385583 -1.75 11.0625 C-2.63171875 11.44535156 -3.5134375 11.82820313 -4.421875 12.22265625 C-7.18064584 13.05446746 -8.36266505 13.06541346 -11 12 C-12.02019573 11.0206121 -13.02149805 10.02104551 -14 9 C-18.73199521 7.42266826 -22.55611468 7.47242652 -27.25 9.1875 C-30.82946601 11.54669351 -32.2323287 13.90635101 -33.6875 17.875 C-34.60092083 24.08626167 -34.14576286 29.52755971 -31 35 C-27.78385411 37.99176362 -25.26382936 39.23342786 -20.9375 39.4375 C-16.26806355 38.91867373 -13.62218676 37.8249601 -10.5 34.3125 C-9 33 -9 33 -6.3125 32.8125 C-5.1678125 32.9053125 -5.1678125 32.9053125 -4 33 C-4 33.66 -4 34.32 -4 35 C-1.69 35.66 0.62 36.32 3 37 C3 40.24167141 2.54892946 42.35114074 0.43359375 44.8515625 C-7.12669689 51.80525448 -13.60226374 53.57232206 -23.8203125 53.27734375 C-32.28590374 52.53894451 -38.32482632 49.41743073 -44 43 C-44 42.34 -44 41.68 -44 41 C-44.66 41 -45.32 41 -46 41 C-46.66 39.02 -47.32 37.04 -48 35 C-48.99 35.495 -48.99 35.495 -50 36 C-49.9071875 34.3603125 -49.9071875 34.3603125 -49.8125 32.6875 C-49.64402086 29.07873917 -49.64402086 29.07873917 -51.5 27.0625 C-52.2425 26.5365625 -52.2425 26.5365625 -53 26 C-52.566875 25.030625 -52.13375 24.06125 -51.6875 23.0625 C-50.4808578 20.28610568 -49.54422771 17.52665517 -48.6875 14.625 C-46.19975723 7.04515876 -42.15252922 0.73882209 -35 -3 C-34.34 -3 -33.68 -3 -33 -3 C-32.67 -3.66 -32.34 -4.32 -32 -5 C-20.82034229 -8.09870947 -9.6282599 -6.43852962 0 0 Z " fill="#000101" transform="translate(759,494)"/>
<path d="M0 0 C1.50433594 0.01353516 1.50433594 0.01353516 3.0390625 0.02734375 C3.80992187 0.03894531 4.58078125 0.05054688 5.375 0.0625 C7.40667064 3.43096223 7.61443616 5.98182301 7.58618164 9.88500977 C7.58280289 11.05624893 7.57942413 12.2274881 7.57594299 13.43421936 C7.56248337 14.69471603 7.54902374 15.95521271 7.53515625 17.25390625 C7.52721001 19.23496682 7.51926874 21.21602743 7.51162624 23.1970892 C7.49850317 25.96893049 7.4762977 28.74067043 7.45404053 31.51245117 C7.41602876 36.367297 7.38766614 41.22218699 7.36631775 46.07713318 C7.35403652 48.6613631 7.33640973 51.24557407 7.31300354 53.82972717 C7.30647263 54.99781418 7.29994171 56.16590118 7.29321289 57.36938477 C7.28495987 58.39878677 7.27670685 59.42818878 7.26820374 60.48878479 C7.26108754 63.18180282 7.26108754 63.18180282 8.375 66.0625 C9.4578125 65.753125 9.4578125 65.753125 10.5625 65.4375 C13.91797056 64.99010393 15.49104375 65.30008229 18.375 67.0625 C19.62550297 69.71981882 19.57983325 71.36812817 18.75390625 74.16796875 C18.01635672 76.16182275 17.22976437 78.11634157 16.375 80.0625 C13.95992672 80.45299692 11.54433288 80.82527086 9.125 81.1875 C8.10212891 81.35572266 8.10212891 81.35572266 7.05859375 81.52734375 C3.19605467 82.08984944 0.61975427 82.38457533 -2.625 80.0625 C-3.99810707 78.77016393 -5.33534824 77.43812854 -6.625 76.0625 C-7.285 75.4025 -7.945 74.7425 -8.625 74.0625 C-8.75 71.4375 -8.75 71.4375 -8.625 69.0625 C-8.955 69.0625 -9.285 69.0625 -9.625 69.0625 C-9.6522415 67.64594207 -9.67150467 66.22922955 -9.6875 64.8125 C-9.69910156 64.02359375 -9.71070313 63.2346875 -9.72265625 62.421875 C-9.625 60.0625 -9.625 60.0625 -9.13172913 58.25897217 C-8.52941635 55.64818235 -8.46270036 53.23926537 -8.41967773 50.55957031 C-8.3897599 48.90831146 -8.3897599 48.90831146 -8.35923767 47.22369385 C-8.33416893 45.45007477 -8.33416893 45.45007477 -8.30859375 43.640625 C-8.28781265 42.42550232 -8.26703156 41.21037964 -8.24562073 39.95843506 C-8.18023172 36.07651427 -8.12128949 32.1945258 -8.0625 28.3125 C-8.01930468 25.68098258 -7.97569006 23.04947201 -7.93164062 20.41796875 C-7.82456117 13.9662174 -7.72277486 7.51439871 -7.625 1.0625 C-4.98041621 -0.25979189 -2.94738699 -0.03427194 0 0 Z M9.375 66.0625 C9.705 66.7225 10.035 67.3825 10.375 68.0625 C10.705 67.4025 11.035 66.7425 11.375 66.0625 C10.715 66.0625 10.055 66.0625 9.375 66.0625 Z " fill="#010201" transform="translate(304.625,465.9375)"/>
<path d="M0 0 C2.875 -0.125 2.875 -0.125 6 0 C8 2 8 2 8.01171875 5.00390625 C7.90472656 6.17824219 7.79773438 7.35257812 7.6875 8.5625 C7.58824219 9.73941406 7.48898437 10.91632813 7.38671875 12.12890625 C7 15 7 15 6 16 C3.15912448 16.28318854 0.31834785 16.44850213 -2.53125 16.62109375 C-3.75328125 16.80865234 -3.75328125 16.80865234 -5 17 C-5.33 17.66 -5.66 18.32 -6 19 C-7.33333333 20.33333333 -8.66666667 21.66666667 -10 23 C-11.55495698 26.10991396 -11.24076956 29.43344049 -11.31640625 32.8515625 C-11.33718735 33.62559418 -11.35796844 34.39962585 -11.37937927 35.19711304 C-11.44483448 37.67298392 -11.50374087 40.14896202 -11.5625 42.625 C-11.60568907 44.30209448 -11.64930348 45.97917807 -11.69335938 47.65625 C-11.80051171 51.77072308 -11.90179045 55.88530414 -12 60 C-15.96597157 60.90109329 -18.34430333 60.92118563 -22.25 59.6875 C-23.12140625 59.42324219 -23.9928125 59.15898438 -24.890625 58.88671875 C-27 58 -27 58 -28 56 C-28.06196884 54.30368769 -28.05792169 52.60477278 -28.02172852 50.90771484 C-28.00163223 49.84676605 -27.98153595 48.78581726 -27.96083069 47.69271851 C-27.93379562 46.54373077 -27.90676056 45.39474304 -27.87890625 44.2109375 C-27.85529526 43.03737701 -27.83168427 41.86381653 -27.80735779 40.6546936 C-27.73059053 36.89467664 -27.64662229 33.13485891 -27.5625 29.375 C-27.50929241 26.83073902 -27.45655193 24.28646822 -27.40429688 21.7421875 C-27.27495767 15.49466475 -27.13915872 9.24731143 -27 3 C-23.37 3 -19.74 3 -16 3 C-16 2.34 -16 1.68 -16 1 C-13 2 -13 2 -12 4 C-11.34 4.33 -10.68 4.66 -10 5 C-10.99 5.33 -11.98 5.66 -13 6 C-13 7.32 -13 8.64 -13 10 C-11.53032683 8.53032683 -10.1213517 6.99931721 -8.75 5.4375 C-5.69676024 2.73121931 -4.00140214 2.27916759 0 2 C0 1.34 0 0.68 0 0 Z " fill="#020302" transform="translate(638,487)"/>
<path d="M0 0 C0.68900391 0.33644531 1.37800781 0.67289062 2.08789062 1.01953125 C6.8724901 3.49247031 6.8724901 3.49247031 8 6.875 C-9.61233936 7.4209623 -9.61233936 7.4209623 -16.140625 4.62890625 C-25.61791896 0.78622193 -36.67127962 2.53016276 -46 5.875 C-46.92474121 6.39356567 -46.92474121 6.39356567 -47.86816406 6.92260742 C-50.29689329 8.00763636 -51.84087643 8.06688035 -54.484375 7.96484375 C-55.33773437 7.94486328 -56.19109375 7.92488281 -57.0703125 7.90429688 C-58.84130336 7.84362882 -60.61215088 7.77860238 -62.3828125 7.70898438 C-71.43252289 7.51195615 -77.57565103 9.7371201 -84.23828125 15.90234375 C-89.57919988 21.88275153 -91.1176512 28.75212192 -91.5625 36.5625 C-91.60568359 37.26439453 -91.64886719 37.96628906 -91.69335938 38.68945312 C-91.7991736 40.41775206 -91.90006581 42.1463511 -92 43.875 C-92.99 43.875 -93.98 43.875 -95 43.875 C-97.04296875 41.6875 -97.04296875 41.6875 -99.1875 38.875 C-100.26064453 37.4828125 -100.26064453 37.4828125 -101.35546875 36.0625 C-101.89816406 35.340625 -102.44085938 34.61875 -103 33.875 C-100.82613201 29.11769468 -97.52130255 25.68804823 -94 21.875 C-93.36191406 21.17117188 -92.72382813 20.46734375 -92.06640625 19.7421875 C-66.39440883 -7.3371595 -34.01744827 -16.62529933 0 0 Z " fill="#37964D" transform="translate(417,482.125)"/>
<path d="M0 0 C0.495 0.45375 0.99 0.9075 1.5 1.375 C1.5 2.035 1.5 2.695 1.5 3.375 C0.10587891 3.44847656 0.10587891 3.44847656 -1.31640625 3.5234375 C-9.07672179 3.86035876 -9.07672179 3.86035876 -16.625 5.5 C-19.50095245 6.37528988 -20.74990127 6.47503949 -23.5 5.375 C-23.5 4.715 -23.5 4.055 -23.5 3.375 C-24.89449109 2.891941 -26.29066707 2.41374483 -27.6875 1.9375 C-28.46480469 1.67066406 -29.24210938 1.40382813 -30.04296875 1.12890625 C-34.92355936 -0.36863586 -39.3908879 -0.78497246 -44.5 -0.8125 C-45.69625 -0.82667969 -46.8925 -0.84085937 -48.125 -0.85546875 C-51.37695208 -0.63340258 -53.58270531 -0.02287037 -56.5 1.375 C-56.5 2.035 -56.5 2.695 -56.5 3.375 C-58.48567708 3.30989583 -60.47135417 3.24479167 -62.45703125 3.1796875 C-64.81359719 3.24245538 -64.81359719 3.24245538 -67.5 5.375 C-68.82189401 5.82664712 -70.15720002 6.23993236 -71.5 6.625 C-76.44230548 8.19128072 -80.73840175 10.58032084 -85.21484375 13.16796875 C-87.5 14.375 -87.5 14.375 -89.5 14.375 C-89.83 15.035 -90.16 15.695 -90.5 16.375 C-91.16 16.045 -91.82 15.715 -92.5 15.375 C-92.6953125 9.3203125 -92.6953125 9.3203125 -92.5 7.375 C-86.21872481 1.09372481 -78.22085083 -1.58716551 -69.5 -1.625 C-69.45359375 -2.53378906 -69.45359375 -2.53378906 -69.40625 -3.4609375 C-68.5 -5.625 -68.5 -5.625 -65.65625 -7.0390625 C-61.94478401 -8.26828735 -58.23979208 -9.48452461 -54.5 -10.625 C-53.695625 -10.87636719 -52.89125 -11.12773437 -52.0625 -11.38671875 C-34.0020273 -16.20968589 -15.2048588 -9.88315822 0 0 Z " fill="#3D9B4E" transform="translate(677.5,485.625)"/>
<path d="M0 0 C4.89486893 0.61305599 8.75784089 2.74311182 13.0625 5 C14.46810482 5.73291336 15.87560324 6.46220888 17.28515625 7.1875 C17.90269775 7.51105469 18.52023926 7.83460938 19.15649414 8.16796875 C21.00509909 9.08668127 21.00509909 9.08668127 23.16967773 9.42578125 C23.77368408 9.61527344 24.37769043 9.80476562 25 10 C25.33 10.99 25.66 11.98 26 13 C32.47284923 16.17325674 39.49467128 16.44232786 46.5625 16.3125 C47.88411133 16.31733398 47.88411133 16.31733398 49.23242188 16.32226562 C54.89317971 16.27631113 60.63506548 15.9630065 66 14 C66.33 13.34 66.66 12.68 67 12 C67.66 11.67 68.32 11.34 69 11 C69.85851562 11.46019531 70.71703125 11.92039062 71.6015625 12.39453125 C75.67937877 14.3209479 78.93291204 14.5469276 83.375 14.6875 C84.11105469 14.72166016 84.84710937 14.75582031 85.60546875 14.79101562 C87.40313853 14.87272789 89.20154046 14.93805781 91 15 C88.96389987 17.1965886 87.09557457 18.64032775 84.41796875 19.97265625 C83.39026367 20.48602539 83.39026367 20.48602539 82.34179688 21.00976562 C81.63087891 21.35716797 80.91996094 21.70457031 80.1875 22.0625 C79.48818359 22.41376953 78.78886719 22.76503906 78.06835938 23.12695312 C63.18250708 30.49329163 48.82503316 29.81209977 33.31640625 24.8125 C21.8327799 20.46133049 10.22962585 14.81975057 0 8 C-0.40843923 5.28796348 -0.13336867 2.7562858 0 0 Z " fill="#40A352" transform="translate(585,531)"/>
<path d="M0 0 C0.66 0.33 1.32 0.66 2 1 C1.01 2.485 1.01 2.485 0 4 C5.36947979 4.89253321 10.56074663 5.18293687 16 5.1875 C16.76828125 5.19974609 17.5365625 5.21199219 18.328125 5.22460938 C22.06000516 5.23412948 24.97396607 5.00749076 28.59765625 3.96484375 C32.48415729 2.86270166 35.43117201 2.99344495 39.4375 3.375 C40.67371094 3.48585938 41.90992188 3.59671875 43.18359375 3.7109375 C44.11300781 3.80632813 45.04242188 3.90171875 46 4 C46 4.99 46 5.98 46 7 C29.43954635 15.44061863 14.28578277 20.774445 -4.39453125 16.19921875 C-11.2853392 13.90725988 -17.62574499 10.44487979 -24 7 C-24 6.34 -24 5.68 -24 5 C-23.08476562 4.86722656 -22.16953125 4.73445312 -21.2265625 4.59765625 C-20.03804688 4.42105469 -18.84953125 4.24445312 -17.625 4.0625 C-16.44164062 3.88847656 -15.25828125 3.71445312 -14.0390625 3.53515625 C-11.09297619 3.16537214 -11.09297619 3.16537214 -9 2 C-7.845 2.020625 -6.69 2.04125 -5.5 2.0625 C-1.94121534 2.40412812 -1.94121534 2.40412812 0 0 Z " fill="#40A151" transform="translate(373,542)"/>
<path d="M0 0 C2.39135967 2.18251855 3.8217659 4.26837134 5.26171875 7.16015625 C5.85629883 8.3502832 5.85629883 8.3502832 6.46289062 9.56445312 C7.06907227 10.80098633 7.06907227 10.80098633 7.6875 12.0625 C8.10322266 12.89072266 8.51894531 13.71894531 8.94726562 14.57226562 C12 20.73287408 12 20.73287408 12 23 C12.66 23.33 13.32 23.66 14 24 C14.88936214 25.61624466 15.71449831 27.26830891 16.5 28.9375 C18.30611242 32.7751351 18.30611242 32.7751351 21 36 C21.66 36.99 22.32 37.98 23 39 C24.32 36.69 25.64 34.38 27 32 C28.98 32.99 30.96 33.98 33 35 C31.65994431 38.75348932 29.99432841 41.65896767 27.5625 44.8125 C26.96566406 45.60269531 26.36882813 46.39289063 25.75390625 47.20703125 C25.17511719 47.79871094 24.59632813 48.39039063 24 49 C23.01 49 22.02 49 21 49 C14.64447641 41.96974014 9.94131528 33.24282173 5.125 25.125 C4.46242188 24.02414062 3.79984375 22.92328125 3.1171875 21.7890625 C0.41671669 17.26632277 -2.1591861 12.94964422 -4 8 C-3.34 8 -2.68 8 -2 8 C-2 7.34 -2 6.68 -2 6 C-1.34 6 -0.68 6 0 6 C0 4.02 0 2.04 0 0 Z " fill="#3B944D" transform="translate(489,421)"/>
<path d="M0 0 C6.78076066 10.17114099 14 26.7192813 14 39 C14.66 39 15.32 39 16 39 C16 41.66666667 16 44.33333333 16 47 C15.01 47 14.02 47 13 47 C10.31232422 49.43750025 10.31232422 49.43750025 8 52 C8 51.01 8 50.02 8 49 C8.66 49 9.32 49 10 49 C4.29315921 31.02087157 4.29315921 31.02087157 -3.00415039 13.6484375 C-3.72070817 12.12199314 -4.36820222 10.5634318 -5 9 C-4.67 8.34 -4.34 7.68 -4 7 C-3.34 8.65 -2.68 10.3 -2 12 C-0.68 11.67 0.64 11.34 2 11 C1.67 9.9275 1.34 8.855 1 7.75 C0 4 0 4 0 0 Z " fill="#348F48" transform="translate(468,423)"/>
<path d="M0 0 C6.03491509 1.88591096 11.50401226 5.75601839 15 11 C15.92456878 15.18848275 16.06678296 18.83271482 15 23 C11.77729632 26.46532949 8.20536838 28.85311524 4 31 C3.34 31 2.68 31 2 31 C2.24760891 26.79064851 2.58102261 24.52372173 5.25 21.1875 C7.82462064 19.13950631 9.88245779 17.97979898 13 17 C13 16.34 13 15.68 13 15 C12.278125 14.71125 11.55625 14.4225 10.8125 14.125 C9.884375 13.75375 8.95625 13.3825 8 13 C7.113125 12.773125 6.22625 12.54625 5.3125 12.3125 C3 11 3 11 1.75 7.625 C1.5025 6.42875 1.255 5.2325 1 4 C0.79375 3.195625 0.5875 2.39125 0.375 1.5625 C0.25125 1.046875 0.1275 0.53125 0 0 Z " fill="#3D9B47" transform="translate(444,500)"/>
<path d="M0 0 C0.49230769 6.4 0.49230769 6.4 -2 9.4375 C-2.99 10.2109375 -2.99 10.2109375 -4 11 C-3.01 11.33 -2.02 11.66 -1 12 C0.1577506 15.47325181 0.06866652 18.36067448 0 22 C-4.10110762 20.59601721 -6.98089159 18.62912962 -10.3125 15.875 C-11.19550781 15.15054688 -12.07851563 14.42609375 -12.98828125 13.6796875 C-13.98408203 12.84824219 -13.98408203 12.84824219 -15 12 C-14.70323201 8.86273835 -14.00348283 8.00310845 -11.6015625 5.859375 C-10.61929688 5.16328125 -9.63703125 4.4671875 -8.625 3.75 C-7.64789062 3.04359375 -6.67078125 2.3371875 -5.6640625 1.609375 C-3 0 -3 0 0 0 Z " fill="#3FA04E" transform="translate(570,505)"/>
<path d="M0 0 C0.66 0 1.32 0 2 0 C1.67 0.66 1.34 1.32 1 2 C0.67 1.34 0.34 0.68 0 0 Z M1 2 C0.67 2.99 0.34 3.98 0 5 C-0.66 5 -1.32 5 -2 5 C-2.185625 5.66 -2.37125 6.32 -2.5625 7 C-6.10481938 14.39266652 -11.8995549 19.16391538 -19 23 C-19 22.01 -19 21.02 -19 20 C-17.49609375 18.7109375 -17.49609375 18.7109375 -15.4375 17.375 C-11.2963325 14.44534427 -8.51255172 11.13483954 -5.54296875 7.05078125 C-1.74285714 2 -1.74285714 2 1 2 Z M-22 22 C-21.34 22.33 -20.68 22.66 -20 23 C-23.85434199 27.0684721 -26.74215974 29.24738658 -32 31 C-32.33 31.66 -32.66 32.32 -33 33 C-26.63583076 31.43247063 -20.28643343 29.85735533 -14 28 C-18.18492878 32.69627056 -24.0724232 34.69560858 -30.27441406 35.17626953 C-35.52233596 35.34242238 -40.75506423 35.20772023 -46 35 C-46 34.34 -46 33.68 -46 33 C-45.30849854 32.70230713 -44.61699707 32.40461426 -43.90454102 32.09790039 C-40.78946102 30.75522514 -37.67596602 29.40891333 -34.5625 28.0625 C-32.92958008 27.35963867 -32.92958008 27.35963867 -31.26367188 26.64257812 C-30.22919922 26.19462891 -29.19472656 25.74667969 -28.12890625 25.28515625 C-26.69140015 24.66459351 -26.69140015 24.66459351 -25.22485352 24.03149414 C-23.07517248 23.18987025 -23.07517248 23.18987025 -22 22 Z " fill="#349846" transform="translate(625,437)"/>
<path d="M0 0 C1.93166016 0.01740234 1.93166016 0.01740234 3.90234375 0.03515625 C5.19269531 0.04417969 6.48304688 0.05320312 7.8125 0.0625 C8.81152344 0.07410156 9.81054688 0.08570313 10.83984375 0.09765625 C10.83984375 0.75765625 10.83984375 1.41765625 10.83984375 2.09765625 C6.54984375 2.09765625 2.25984375 2.09765625 -2.16015625 2.09765625 C-2.16015625 19.58765625 -2.16015625 37.07765625 -2.16015625 55.09765625 C1.79984375 55.09765625 5.75984375 55.09765625 9.83984375 55.09765625 C10.16984375 53.44765625 10.49984375 51.79765625 10.83984375 50.09765625 C11.16984375 50.09765625 11.49984375 50.09765625 11.83984375 50.09765625 C12.03515625 56.15234375 12.03515625 56.15234375 11.83984375 58.09765625 C11.17984375 58.75765625 10.51984375 59.41765625 9.83984375 60.09765625 C9.83984375 59.43765625 9.83984375 58.77765625 9.83984375 58.09765625 C7.36484375 58.59265625 7.36484375 58.59265625 4.83984375 59.09765625 C4.83984375 58.43765625 4.83984375 57.77765625 4.83984375 57.09765625 C2.19984375 57.09765625 -0.44015625 57.09765625 -3.16015625 57.09765625 C-4.2783944 54.86117994 -4.35411686 53.44874096 -4.4765625 50.96484375 C-4.5394043 49.75634766 -4.5394043 49.75634766 -4.60351562 48.5234375 C-4.64283203 47.68167969 -4.68214844 46.83992187 -4.72265625 45.97265625 C-4.76583984 45.12316406 -4.80902344 44.27367187 -4.85351562 43.3984375 C-4.95969861 41.29837402 -5.06044122 39.19803677 -5.16015625 37.09765625 C-4.83015625 37.09765625 -4.50015625 37.09765625 -4.16015625 37.09765625 C-4.16015625 36.04964844 -4.16015625 35.00164063 -4.16015625 33.921875 C-4.16015625 28.98046875 -4.16015625 24.0390625 -4.16015625 19.09765625 C-4.17138108 17.6992147 -4.18315354 16.30077749 -4.1953125 14.90234375 C-4.20460377 13.25911557 -4.21371176 11.61588635 -4.22265625 9.97265625 C-4.23103516 9.13605469 -4.23941406 8.29945313 -4.24804688 7.4375 C-4.25661036 5.32403303 -4.21266202 3.21048826 -4.16015625 1.09765625 C-3.16015625 0.09765625 -3.16015625 0.09765625 0 0 Z " fill="#0F1A0F" transform="translate(462.16015625,488.90234375)"/>
<path d="M0 0 C0.74620605 0.22953369 1.49241211 0.45906738 2.26123047 0.69555664 C2.26123047 1.68555664 2.26123047 2.67555664 2.26123047 3.69555664 C0.94123047 3.69555664 -0.37876953 3.69555664 -1.73876953 3.69555664 C-3.9201423 5.35641353 -3.9201423 5.35641353 -5.99658203 7.63305664 C-6.78677734 8.44516602 -7.57697266 9.25727539 -8.39111328 10.09399414 C-9.61507813 11.38176758 -9.61507813 11.38176758 -10.86376953 12.69555664 C-12.48694498 14.38731697 -14.11433237 16.07504962 -15.74658203 17.75805664 C-16.46475098 18.5121582 -17.18291992 19.26625977 -17.92285156 20.04321289 C-19.73876953 21.69555664 -19.73876953 21.69555664 -21.73876953 21.69555664 C-21.96564453 22.56180664 -22.19251953 23.42805664 -22.42626953 24.32055664 C-23.68579418 27.55933432 -25.15880436 29.55767064 -27.44580078 32.13305664 C-29.61578863 34.75539846 -31.1196478 37.71534055 -32.73876953 40.69555664 C-33.48773659 41.96699901 -34.23771242 43.23784777 -34.98876953 44.50805664 C-36.89918914 47.38169998 -36.89918914 47.38169998 -36.73876953 49.69555664 C-37.39876953 49.69555664 -38.05876953 49.69555664 -38.73876953 49.69555664 C-39.06876953 50.68555664 -39.39876953 51.67555664 -39.73876953 52.69555664 C-39.23886948 47.40607371 -37.93540415 43.31114325 -35.36376953 38.63305664 C-35.00855225 37.98385254 -34.65333496 37.33464844 -34.28735352 36.66577148 C-28.01551034 25.57471019 -19.69478386 16.3752219 -10.86376953 7.25805664 C-10.13810791 6.49315918 -9.41244629 5.72826172 -8.66479492 4.94018555 C-7.62246704 3.89290283 -7.62246704 3.89290283 -6.55908203 2.82446289 C-5.94307129 2.19612549 -5.32706055 1.56778809 -4.69238281 0.92041016 C-2.73876953 -0.30444336 -2.73876953 -0.30444336 0 0 Z " fill="#01472D" transform="translate(512.73876953125,315.304443359375)"/>
<path d="M0 0 C0.33 0.66 0.66 1.32 1 2 C0.54625 3.051875 0.0925 4.10375 -0.375 5.1875 C-2.9180299 11.44637267 -2.7481926 18.33144547 -3 25 C-6 25 -6 25 -8.125 23 C-10.52730892 19.15630572 -10.6956341 16.48939708 -11 12 C-9.03617993 10.49440461 -7.21736634 9.10868317 -5 8 C-4.690625 7.21625 -4.38125 6.4325 -4.0625 5.625 C-3.01626291 3.04017895 -2.07886465 1.7953831 0 0 Z " fill="#42AE58" transform="translate(328,501)"/>
<path d="M0 0 C1.21816406 0.03480469 1.21816406 0.03480469 2.4609375 0.0703125 C3.68683594 0.09738281 3.68683594 0.09738281 4.9375 0.125 C5.87722656 0.15980469 5.87722656 0.15980469 6.8359375 0.1953125 C6.8359375 0.5253125 6.8359375 0.8553125 6.8359375 1.1953125 C14.0959375 1.1953125 21.3559375 1.1953125 28.8359375 1.1953125 C28.8359375 1.8553125 28.8359375 2.5153125 28.8359375 3.1953125 C34.4459375 3.1953125 40.0559375 3.1953125 45.8359375 3.1953125 C45.8359375 3.5253125 45.8359375 3.8553125 45.8359375 4.1953125 C30.6559375 4.1953125 15.4759375 4.1953125 -0.1640625 4.1953125 C-0.4940625 8.1553125 -0.8240625 12.1153125 -1.1640625 16.1953125 C-1.4940625 15.2053125 -1.8240625 14.2153125 -2.1640625 13.1953125 C-4.17914608 12.46207454 -4.17914608 12.46207454 -6.1640625 12.1953125 C-5.1740625 12.1953125 -4.1840625 12.1953125 -3.1640625 12.1953125 C-3.30714844 11.14730469 -3.30714844 11.14730469 -3.453125 10.078125 C-3.56398438 9.16804688 -3.67484375 8.25796875 -3.7890625 7.3203125 C-3.90507813 6.41539062 -4.02109375 5.51046875 -4.140625 4.578125 C-4.14835938 3.79179687 -4.15609375 3.00546875 -4.1640625 2.1953125 C-2.1640625 0.1953125 -2.1640625 0.1953125 0 0 Z " fill="#0F2314" transform="translate(550.1640625,468.8046875)"/>
<path d="M0 0 C0.99 0.33 1.98 0.66 3 1 C2.125 5.875 2.125 5.875 1 7 C1.66 7.33 2.32 7.66 3 8 C3 9.98 3 11.96 3 14 C-1.455 14.495 -1.455 14.495 -6 15 C-7.05404945 11.01803543 -6.84098656 8.01804691 -6 4 C-4.68 3.67 -3.36 3.34 -2 3 C-2 2.34 -2 1.68 -2 1 C-1.34 0.67 -0.68 0.34 0 0 Z " fill="#3B9A48" transform="translate(544,467)"/>
<path d="M0 0 C0.66 0.33 1.32 0.66 2 1 C0.41925436 1.81752303 -1.16471223 2.62881997 -2.75 3.4375 C-3.63171875 3.88996094 -4.5134375 4.34242188 -5.421875 4.80859375 C-9.13042422 6.52239301 -12.2540577 7.12675673 -16.328125 7.09765625 C-17.12734375 7.09443359 -17.9265625 7.09121094 -18.75 7.08789062 C-19.575 7.07951172 -20.4 7.07113281 -21.25 7.0625 C-22.09046875 7.05798828 -22.9309375 7.05347656 -23.796875 7.04882812 C-25.86461401 7.03707961 -27.93231624 7.01914522 -30 7 C-30 6.34 -30 5.68 -30 5 C-28.3789897 4.30314502 -26.75303934 3.61777139 -25.125 2.9375 C-24.22007812 2.55464844 -23.31515625 2.17179687 -22.3828125 1.77734375 C-20 1 -20 1 -18 2 C-17.67 2.99 -17.34 3.98 -17 5 C-15.10307857 4.54619105 -13.20750405 4.08675008 -11.3125 3.625 C-10.25675781 3.36976563 -9.20101562 3.11453125 -8.11328125 2.8515625 C-5.01295392 2.07633613 -5.01295392 2.07633613 -2.23046875 0.8359375 C-1.12638672 0.42214844 -1.12638672 0.42214844 0 0 Z " fill="#389847" transform="translate(609,465)"/>
<path d="M0 0 C0.66 0 1.32 0 2 0 C1.93886312 8.57102328 1.86181178 17.14169083 1.76428509 25.71236992 C1.71950559 29.69185243 1.68026666 33.67123078 1.65356445 37.65087891 C1.6276064 41.48954551 1.58725852 45.32781285 1.53681374 49.16623306 C1.52009395 50.63264129 1.50861158 52.09911865 1.50238609 53.56560898 C1.49279979 55.61561968 1.46481019 57.66459712 1.43237305 59.71435547 C1.42126999 60.88239716 1.41016693 62.05043884 1.39872742 63.25387573 C1.26714737 64.16009674 1.13556732 65.06631775 1 66 C-0.485 66.99 -0.485 66.99 -2 68 C-2.0272415 66.58344207 -2.04650467 65.16672955 -2.0625 63.75 C-2.07410156 62.96109375 -2.08570313 62.1721875 -2.09765625 61.359375 C-2 59 -2 59 -1.50672913 57.19647217 C-0.90441635 54.58568235 -0.83770036 52.17676537 -0.79467773 49.49707031 C-0.7647599 47.84581146 -0.7647599 47.84581146 -0.73423767 46.16119385 C-0.70916893 44.38757477 -0.70916893 44.38757477 -0.68359375 42.578125 C-0.66281265 41.36300232 -0.64203156 40.14787964 -0.62062073 38.89593506 C-0.55523172 35.01401427 -0.49628949 31.1320258 -0.4375 27.25 C-0.39430468 24.61848258 -0.35069006 21.98697201 -0.30664062 19.35546875 C-0.19956117 12.9037174 -0.09777486 6.45189871 0 0 Z " fill="#080707" transform="translate(297,467)"/>
<path d="M0 0 C0.33 0 0.66 0 1 0 C1 7.59 1 15.18 1 23 C5.29 23.33 9.58 23.66 14 24 C14 24.66 14 25.32 14 26 C12.5422647 26.335939 11.08378894 26.66866624 9.625 27 C8.81289063 27.185625 8.00078125 27.37125 7.1640625 27.5625 C5 28 5 28 3 28 C3 27.34 3 26.68 3 26 C1.02 26 -0.96 26 -3 26 C-3 23.69 -3 21.38 -3 19 C-2.67 19 -2.34 19 -2 19 C-1.34 12.73 -0.68 6.46 0 0 Z " fill="#090D09" transform="translate(532,520)"/>
<path d="M0 0 C3.95575857 1.97787928 6.19142665 3.62971198 9 7 C9.0625 9.1875 9.0625 9.1875 8 11 C6.68352881 11.69937532 5.34977849 12.36729133 4 13 C3.67 13.99 3.34 14.98 3 16 C2.01 15.67 1.02 15.34 0 15 C0 10.05 0 5.1 0 0 Z " fill="#258031" transform="translate(699,507)"/>
<path d="M0 0 C-0.52383603 4.10457819 -1.65165184 6.21510512 -4.4375 9.25 C-5.05496094 9.93578125 -5.67242188 10.6215625 -6.30859375 11.328125 C-8.73654693 13.72804177 -9.64540748 13.99290815 -13.125 14.0625 C-14.548125 14.0315625 -14.548125 14.0315625 -16 14 C-16 13.01 -16 12.02 -16 11 C-13.953125 9.31640625 -13.953125 9.31640625 -11.25 7.5625 C-8.49695078 5.76335818 -6.11601062 4.11703909 -3.796875 1.77734375 C-2 0 -2 0 0 0 Z " fill="#399D50" transform="translate(685,522)"/>
<path d="M0 0 C3.28637136 -0.22928172 5.69362618 -0.10893291 8.8125 1 C12.11137477 4.01611407 11.78436237 6.61536823 12 11 C10.68 11 9.36 11 8 11 C7.34 10.34 6.68 9.68 6 9 C5.01 8.67 4.02 8.34 3 8 C2.4375 6.1875 2.4375 6.1875 2 4 C1.36345658 2.6520257 0.70394612 1.31403276 0 0 Z " fill="#3AA84D" transform="translate(673,500)"/>
<path d="M0 0 C1.65322266 0.01740234 1.65322266 0.01740234 3.33984375 0.03515625 C4.99693359 0.04869141 4.99693359 0.04869141 6.6875 0.0625 C7.54214844 0.07410156 8.39679687 0.08570313 9.27734375 0.09765625 C9.27734375 0.42765625 9.27734375 0.75765625 9.27734375 1.09765625 C5.64734375 1.42765625 2.01734375 1.75765625 -1.72265625 2.09765625 C-1.72265625 4.73765625 -1.72265625 7.37765625 -1.72265625 10.09765625 C-0.73265625 10.09765625 0.25734375 10.09765625 1.27734375 10.09765625 C1.60734375 9.10765625 1.93734375 8.11765625 2.27734375 7.09765625 C2.27734375 8.41765625 2.27734375 9.73765625 2.27734375 11.09765625 C2.93734375 11.09765625 3.59734375 11.09765625 4.27734375 11.09765625 C4.60734375 13.07765625 4.93734375 15.05765625 5.27734375 17.09765625 C4.61734375 17.42765625 3.95734375 17.75765625 3.27734375 18.09765625 C2.94734375 17.43765625 2.61734375 16.77765625 2.27734375 16.09765625 C1.28734375 18.57265625 1.28734375 18.57265625 0.27734375 21.09765625 C-1.46294359 17.99000029 -2.23579691 15.16135135 -2.84765625 11.66015625 C-3.01523437 10.73332031 -3.1828125 9.80648437 -3.35546875 8.8515625 C-3.7070418 6.21476462 -3.86316461 3.75326434 -3.72265625 1.09765625 C-2.72265625 0.09765625 -2.72265625 0.09765625 0 0 Z " fill="#3B9747" transform="translate(540.72265625,548.90234375)"/>
<path d="M0 0 C0.33 0 0.66 0 1 0 C1 3.63 1 7.26 1 11 C1.99 11.33 2.98 11.66 4 12 C3.67330322 12.71752441 3.34660645 13.43504883 3.01000977 14.17431641 C1.96410471 17.1004235 1.78103605 19.12423677 1.83984375 22.2109375 C1.85144531 23.20222656 1.86304688 24.19351563 1.875 25.21484375 C1.895625 26.25769531 1.91625 27.30054688 1.9375 28.375 C2.03840519 37.647066 1.82888184 46.76388809 1 56 C0.67 56 0.34 56 0 56 C0 37.52 0 19.04 0 0 Z " fill="#0D1A11" transform="translate(584,490)"/>
<path d="M0 0 C0 0.33 0 0.66 0 1 C-1.27875 1.0825 -2.5575 1.165 -3.875 1.25 C-10.75634614 2.03024712 -17.20720905 4.16479096 -22.4375 8.8125 C-23.283125 9.534375 -24.12875 10.25625 -25 11 C-25.99 10.67 -26.98 10.34 -28 10 C-18.75674538 1.22031286 -13.12819446 -3.09250781 0 0 Z " fill="#2A8842" transform="translate(358,487)"/>
<path d="M0 0 C3.39859703 1.46966358 5.64963709 3.38037514 8.25 6 C8.95640625 6.70125 9.6628125 7.4025 10.390625 8.125 C12 10 12 10 12 12 C9.375 12 9.375 12 6 11 C2.75755062 7.74294499 0 4.69693054 0 0 Z " fill="#34904B" transform="translate(339,522)"/>
<path d="M0 0 C0.33 0 0.66 0 1 0 C1 3.3 1 6.6 1 10 C5.29 10 9.58 10 14 10 C14.33 8.68 14.66 7.36 15 6 C15 8.31 15 10.62 15 13 C11.09243012 14.0471725 8.5956026 13.90220382 4.75 12.6875 C3.44289063 12.29111328 3.44289063 12.29111328 2.109375 11.88671875 C0 11 0 11 -1 9 C-0.91348369 7.45386986 -0.75997364 5.91090613 -0.5625 4.375 C-0.46066406 3.55773437 -0.35882812 2.74046875 -0.25390625 1.8984375 C-0.17011719 1.27195312 -0.08632813 0.64546875 0 0 Z " fill="#0B210E" transform="translate(611,534)"/>
<path d="M0 0 C-0.33 1.32 -0.66 2.64 -1 4 C-1.55816406 4.11601562 -2.11632812 4.23203125 -2.69140625 4.3515625 C-8.79557009 6.06609921 -14.67036888 9.62456696 -20 13 C-20 12.01 -20 11.02 -20 10 C-17.75076296 8.7069894 -15.50064815 7.41555023 -13.25 6.125 C-12.61578125 5.76019531 -11.9815625 5.39539063 -11.328125 5.01953125 C-2.56676136 0 -2.56676136 0 0 0 Z " fill="#085C36" transform="translate(597,384)"/>
<path d="M0 0 C0.99 0.33 1.98 0.66 3 1 C2.25057863 2.35448698 1.50042574 3.70856922 0.75 5.0625 C0.29753906 5.87976563 -0.15492188 6.69703125 -0.62109375 7.5390625 C-1.82554844 9.68865586 -3.06268652 11.81416096 -4.3125 13.9375 C-6.16086825 16.70917106 -6.16086825 16.70917106 -6 19 C-6.66 19 -7.32 19 -8 19 C-8.33 19.99 -8.66 20.98 -9 22 C-8.52269189 16.17381053 -6.80741399 12.11335035 -3.9375 7.0625 C-3.56044922 6.37865234 -3.18339844 5.69480469 -2.79492188 4.99023438 C-1.87299058 3.32142204 -0.93784488 1.65992136 0 0 Z " fill="#045532" transform="translate(482,346)"/>
<path d="M0 0 C0.66 0 1.32 0 2 0 C1.67 0.66 1.34 1.32 1 2 C0.67 1.34 0.34 0.68 0 0 Z M1 2 C0.67 2.99 0.34 3.98 0 5 C-0.66 5 -1.32 5 -2 5 C-2.185625 5.66 -2.37125 6.32 -2.5625 7 C-5.22073605 12.54762306 -9.27042391 17.53905873 -15 20 C-13.10252671 15.65162371 -10.07579731 12.65490006 -6.875 9.21875 C-5.16035767 7.18975657 -4.15938881 5.36018436 -3 3 C-1 2 -1 2 1 2 Z " fill="#288645" transform="translate(625,437)"/>
<path d="M0 0 C4.10958767 1.45044271 7.43258745 3.51110752 11 6 C10.01 6.495 10.01 6.495 9 7 C8.34 6.67 7.68 6.34 7 6 C6.67 7.65 6.34 9.3 6 11 C5.01 11 4.02 11 3 11 C0.85714286 3.57142857 0.85714286 3.57142857 0 0 Z " fill="#348D3D" transform="translate(444,500)"/>
<path d="M0 0 C6.6 0 13.2 0 20 0 C20 0.99 20 1.98 20 3 C6.3667426 3.18451025 6.3667426 3.18451025 0 2 C0 1.34 0 0.68 0 0 Z " fill="#085335" transform="translate(630,377)"/>
<path d="M0 0 C-1.54787502 3.83450856 -3.93722746 6.02555699 -7 8.75 C-7.886875 9.54921875 -8.77375 10.3484375 -9.6875 11.171875 C-12 13 -12 13 -14 13 C-14 13.66 -14 14.32 -14 15 C-14.66 14.67 -15.32 14.34 -16 14 C-4.30964467 0 -4.30964467 0 0 0 Z " fill="#309248" transform="translate(408,570)"/>
<path d="M0 0 C1.18771723 3.42943519 0.80226223 5.37784675 -0.4375 8.75 C-0.72496094 9.54921875 -1.01242187 10.3484375 -1.30859375 11.171875 C-1.53675781 11.77515625 -1.76492188 12.3784375 -2 13 C-2.99 13 -3.98 13 -5 13 C-4.67 9.7 -4.34 6.4 -4 3 C-2.68 2.67 -1.36 2.34 0 2 C0 1.34 0 0.68 0 0 Z " fill="#41A351" transform="translate(542,468)"/>
<path d="M0 0 C1 3 1 3 0 6 C-0.22451458 8.22574335 -0.40782878 10.45581519 -0.5625 12.6875 C-0.64628906 13.86699219 -0.73007812 15.04648437 -0.81640625 16.26171875 C-0.87699219 17.16535156 -0.93757812 18.06898438 -1 19 C-2.9375 18.6875 -2.9375 18.6875 -5 18 C-5.33 17.01 -5.66 16.02 -6 15 C-5.34 14.34 -4.68 13.68 -4 13 C-3.41497134 11.18613122 -2.90203248 9.34840148 -2.4375 7.5 C-1.0828877 2.1657754 -1.0828877 2.1657754 0 0 Z " fill="#0A1707" transform="translate(712,504)"/>
<path d="M0 0 C1.75032844 0.14183696 3.50025534 0.28863429 5.25 0.4375 C6.71179688 0.55931641 6.71179688 0.55931641 8.203125 0.68359375 C10.57242953 0.9516296 12.69723554 1.42430889 15 2 C17.33300933 2.03888349 19.66709801 2.0448635 22 2 C21.67 2.66 21.34 3.32 21 4 C13.40501039 4.26442904 6.42640842 3.60881575 -1 2 C-0.67 1.34 -0.34 0.68 0 0 Z " fill="#3F9A4B" transform="translate(452,478)"/>
<path d="M0 0 C0.99 0 1.98 0 3 0 C3.36923077 6.52307692 3.36923077 6.52307692 1.5 8.9375 C1.005 9.288125 0.51 9.63875 0 10 C-0.33 9.01 -0.66 8.02 -1 7 C-1.66 6.67 -2.32 6.34 -3 6 C-1.125 1.125 -1.125 1.125 0 0 Z " fill="#3C9846" transform="translate(567,505)"/>
<path d="M0 0 C1.32 0 2.64 0 4 0 C4 0.66 4 1.32 4 2 C2.68 1.67 1.36 1.34 0 1 C0 0.67 0 0.34 0 0 Z M0 1 C0 1.66 0 2.32 0 3 C-6.27692308 7.06153846 -6.27692308 7.06153846 -9.9375 6.75 C-10.618125 6.5025 -11.29875 6.255 -12 6 C-8.55392327 2.00980589 -5.20909181 1 0 1 Z " fill="#359548" transform="translate(620,476)"/>
<path d="M0 0 C1.65322266 0.01740234 1.65322266 0.01740234 3.33984375 0.03515625 C4.99693359 0.04869141 4.99693359 0.04869141 6.6875 0.0625 C7.54214844 0.07410156 8.39679688 0.08570313 9.27734375 0.09765625 C9.27734375 0.75765625 9.27734375 1.41765625 9.27734375 2.09765625 C4.82234375 2.59265625 4.82234375 2.59265625 0.27734375 3.09765625 C0.15359375 4.06703125 0.02984375 5.03640625 -0.09765625 6.03515625 C-0.30390625 7.04578125 -0.51015625 8.05640625 -0.72265625 9.09765625 C-1.71265625 9.59265625 -1.71265625 9.59265625 -2.72265625 10.09765625 C-2.91677806 8.61934404 -3.10277756 7.13996309 -3.28515625 5.66015625 C-3.38957031 4.83644531 -3.49398438 4.01273437 -3.6015625 3.1640625 C-3.64152344 2.48214844 -3.68148438 1.80023438 -3.72265625 1.09765625 C-2.72265625 0.09765625 -2.72265625 0.09765625 0 0 Z " fill="#0E5937" transform="translate(389.72265625,390.90234375)"/>
<path d="M0 0 C0.99 0.495 0.99 0.495 2 1 C3.0283474 6.03890228 3.08970351 10.88689982 3 16 C2.34 16 1.68 16 1 16 C0.14701624 12.32612505 -0.10789471 8.9552607 -0.0625 5.1875 C-0.05347656 4.21167969 -0.04445313 3.23585938 -0.03515625 2.23046875 C-0.02355469 1.49441406 -0.01195312 0.75835937 0 0 Z " fill="#085632" transform="translate(373,391)"/>
<path d="M0 0 C6.75 0.875 6.75 0.875 9 2 C8.625 3.9375 8.625 3.9375 8 6 C7.01 6.495 7.01 6.495 6 7 C6 6.01 6 5.02 6 4 C4.35 4.33 2.7 4.66 1 5 C1.33 3.68 1.66 2.36 2 1 C1.34 0.67 0.68 0.34 0 0 Z " fill="#0B140B" transform="translate(314,531)"/>
<path d="M0 0 C0.33 0 0.66 0 1 0 C1 3.63 1 7.26 1 11 C1.99 11.33 2.98 11.66 4 12 C3.34 13.65 2.68 15.3 2 17 C1.34 17 0.68 17 0 17 C0 11.39 0 5.78 0 0 Z " fill="#182C16" transform="translate(584,490)"/>
<path d="M0 0 C0.66 0 1.32 0 2 0 C0.5611898 3.387199 -1.22119499 5.3594104 -4 7.75 C-5.051875 8.67039062 -5.051875 8.67039062 -6.125 9.609375 C-8 11 -8 11 -10 11 C-8.533292 7.13322435 -6.52798328 5.99014441 -3 4 C-2.67 3.34 -2.34 2.68 -2 2 C-1.34 2 -0.68 2 0 2 C0 1.34 0 0.68 0 0 Z " fill="#308C49" transform="translate(626,451)"/>
<path d="M0 0 C0.99 0.33 1.98 0.66 3 1 C2.4225 1.70125 1.845 2.4025 1.25 3.125 C-1.06587963 6.00039036 -1.06587963 6.00039036 -3.125 9.25 C-5 12 -5 12 -7 13 C-5.35821735 8.22390502 -2.73453298 4.20617096 0 0 Z " fill="#257D46" transform="translate(562,410)"/>
<path d="M0 0 C1.20646346 4.02441739 0.54423953 6.06218919 -1 10 C-1.24234375 10.6290625 -1.4846875 11.258125 -1.734375 11.90625 C-3.725 16.8625 -3.725 16.8625 -6 18 C-4.23536928 11.89262558 -2.30442525 5.92566493 0 0 Z " fill="#2F8349" transform="translate(540,401)"/>
<path d="M0 0 C1.32 0.99 2.64 1.98 4 3 C3.67 4.98 3.34 6.96 3 9 C2.67 8.34 2.34 7.68 2 7 C1.01 7 0.02 7 -1 7 C-1.04254356 5.00045254 -1.04080783 2.99958364 -1 1 C-0.67 0.67 -0.34 0.34 0 0 Z " fill="#37A84D" transform="translate(700,509)"/>
<path d="M0 0 C2.875 -0.125 2.875 -0.125 6 0 C6.66 0.66 7.32 1.32 8 2 C7.34 3.32 6.68 4.64 6 6 C6 5.34 6 4.68 6 4 C2.7 3.67 -0.6 3.34 -4 3 C-2.68 2.67 -1.36 2.34 0 2 C0 1.34 0 0.68 0 0 Z " fill="#152818" transform="translate(638,487)"/>
<path d="M0 0 C4.85077588 1.11940982 7.777893 2.1334716 11 6 C6.64477147 5.49357808 3.55760365 4.61588503 0 2 C0 1.34 0 0.68 0 0 Z " fill="#339546" transform="translate(349,547)"/>
<path d="M0 0 C0.99 0.33 1.98 0.66 3 1 C3 4.3 3 7.6 3 11 C2.34 10.34 1.68 9.68 1 9 C1 7.68 1 6.36 1 5 C0.34 5 -0.32 5 -1 5 C-0.67 3.35 -0.34 1.7 0 0 Z " fill="#49AC52" transform="translate(456,510)"/>
<path d="M0 0 C1.98 0.66 3.96 1.32 6 2 C6 2.66 6 3.32 6 4 C7.65 4 9.3 4 11 4 C11 4.33 11 4.66 11 5 C7.37 5 3.74 5 0 5 C-0.33 3.68 -0.66 2.36 -1 1 C-0.67 0.67 -0.34 0.34 0 0 Z " fill="#152A18" transform="translate(674,507)"/>
<path d="M0 0 C-0.99 0.495 -0.99 0.495 -2 1 C-2 1.66 -2 2.32 -2 3 C-4.31 3 -6.62 3 -9 3 C-9.33 2.34 -9.66 1.68 -10 1 C-6.21812119 -0.83691257 -4.05431692 -1.15837626 0 0 Z " fill="#427B43" transform="translate(623,486)"/>
<path d="M0 0 C0.66 0.66 1.32 1.32 2 2 C-0.0085765 6.92101242 -2.29260594 11.42543762 -5 16 C-5.33 15.34 -5.66 14.68 -6 14 C-5.09176973 11.56442428 -4.13171929 9.23804483 -3.0625 6.875 C-2.77181641 6.21628906 -2.48113281 5.55757813 -2.18164062 4.87890625 C-1.46139802 3.24950495 -0.73158857 1.62433868 0 0 Z " fill="#358C4C" transform="translate(533,419)"/>
<path d="M0 0 C1.62463842 -0.05395478 3.24978541 -0.09277195 4.875 -0.125 C5.77992188 -0.14820313 6.68484375 -0.17140625 7.6171875 -0.1953125 C10 0 10 0 12 2 C7.74433453 3.16063604 4.3164922 2.76173392 0 2 C0 1.34 0 0.68 0 0 Z " fill="#064F35" transform="translate(389,377)"/>
<path d="M0 0 C1.98 0 3.96 0 6 0 C5.01 0.495 5.01 0.495 4 1 C4.99 3.31 5.98 5.62 7 8 C5.68 8.33 4.36 8.66 3 9 C2.87625 8.2575 2.7525 7.515 2.625 6.75 C2.04513299 4.19858515 1.26291261 2.2732427 0 0 Z " fill="#32893F" transform="translate(673,500)"/>
<path d="M0 0 C4.29 0 8.58 0 13 0 C12.67 0.99 12.34 1.98 12 3 C7.18550592 2.51855059 4.39828259 2.1991413 0 0 Z " fill="#225A29" transform="translate(613,545)"/>
<path d="M0 0 C0.33 0 0.66 0 1 0 C1 3.96 1 7.92 1 12 C0.01 12 -0.98 12 -2 12 C-2.66 10.68 -3.32 9.36 -4 8 C-3.01 7.67 -2.02 7.34 -1 7 C-0.67 4.69 -0.34 2.38 0 0 Z " fill="#40A150" transform="translate(324,514)"/>
<path d="M0 0 C0.66 0.33 1.32 0.66 2 1 C2.59355614 3.64860427 2.74209269 6.29197322 3 9 C1.68 9 0.36 9 -1 9 C-1.33 8.01 -1.66 7.02 -2 6 C-1.34 6 -0.68 6 0 6 C0 4.02 0 2.04 0 0 Z " fill="#278B34" transform="translate(682,502)"/>
<path d="M0 0 C4.21912747 0.4794463 6.79663178 1.16625119 10 4 C6.94736336 4.98120464 5.05263664 4.98120464 2 4 C2 3.34 2 2.68 2 2 C1.34 2 0.68 2 0 2 C0 1.34 0 0.68 0 0 Z " fill="#3C9245" transform="translate(652,487)"/>
<path d="M0 0 C4.95 0 9.9 0 15 0 C15 0.33 15 0.66 15 1 C13.5422647 1.335939 12.08378894 1.66866624 10.625 2 C9.81289063 2.185625 9.00078125 2.37125 8.1640625 2.5625 C6 3 6 3 4 3 C4 2.34 4 1.68 4 1 C2.68 0.67 1.36 0.34 0 0 Z " fill="#122915" transform="translate(531,545)"/>
<path d="M0 0 C2.4375 1.25 2.4375 1.25 3.4375 4.25 C0.5625 3.9375 0.5625 3.9375 -2.5625 3.25 C-3.2225 2.26 -3.8825 1.27 -4.5625 0.25 C-2.5625 -0.75 -2.5625 -0.75 0 0 Z " fill="#3C9554" transform="translate(347.5625,529.75)"/>
<path d="M0 0 C2.60018816 3.90028225 2.15085514 7.47434569 2 12 C1.67 11.34 1.34 10.68 1 10 C0.34 10 -0.32 10 -1 10 C-1.625 8.1875 -1.625 8.1875 -2 6 C-1.34 5.01 -0.68 4.02 0 3 C-0.66 2.67 -1.32 2.34 -2 2 C-1.34 2 -0.68 2 0 2 C0 1.34 0 0.68 0 0 Z " fill="#0D2C11" transform="translate(325,524)"/>
<path d="M0 0 C0.66 0 1.32 0 2 0 C1.71758359 1.46015291 1.42373386 2.91809793 1.125 4.375 C0.96257813 5.18710937 0.80015625 5.99921875 0.6328125 6.8359375 C0 9 0 9 -2 11 C-1.85957123 9.35369672 -1.71250671 7.70795821 -1.5625 6.0625 C-1.48128906 5.14597656 -1.40007813 4.22945313 -1.31640625 3.28515625 C-1 1 -1 1 0 0 Z " fill="#2A8145" transform="translate(547,403)"/>
<path d="M0 0 C0.66 0 1.32 0 2 0 C0.58707905 4.8274799 -1.42974154 8.7162359 -4 13 C-4.33 12.01 -4.66 11.02 -5 10 C-4.05988318 8.29883624 -3.05104383 6.63495707 -2 5 C-1.30177383 3.34630643 -0.62501395 1.68272986 0 0 Z " fill="#338D46" transform="translate(539,423)"/>
<path d="M0 0 C2.475 0.99 2.475 0.99 5 2 C5 2.66 5 3.32 5 4 C6.32 4.33 7.64 4.66 9 5 C9 5.99 9 6.98 9 8 C4.7257442 6.4169423 2.73468206 3.49431596 0 0 Z " fill="#35934B" transform="translate(500,705)"/>
<path d="M0 0 C-1.49097658 3.7952131 -3.75700849 5.61042731 -7 8 C-7 5 -7 5 -4.625 2.3125 C-2 0 -2 0 0 0 Z " fill="#003927" transform="translate(512,315)"/>
<path d="M0 0 C3.37503669 1.1858237 5.64722731 2.27573689 8 5 C6.02 5 4.04 5 2 5 C1.34 3.35 0.68 1.7 0 0 Z " fill="#298437" transform="translate(444,500)"/>
<path d="M0 0 C0.66 0.33 1.32 0.66 2 1 C1.34 2.32 0.68 3.64 0 5 C-1.98 5 -3.96 5 -6 5 C-5.195625 4.360625 -4.39125 3.72125 -3.5625 3.0625 C-1.7249496 1.59396498 -1.7249496 1.59396498 0 0 Z " fill="#43AF5B" transform="translate(678,529)"/>
<path d="M0 0 C-0.75 4.75 -0.75 4.75 -3 7 C-3.66 5.68 -4.32 4.36 -5 3 C-2.25 0 -2.25 0 0 0 Z " fill="#298F3B" transform="translate(685,522)"/>
<path d="M0 0 C2.475 0.99 2.475 0.99 5 2 C5 2.66 5 3.32 5 4 C5.66 4.33 6.32 4.66 7 5 C7 5.66 7 6.32 7 7 C4.13302508 5.71480435 2.02392288 4.42870746 0 2 C0 1.34 0 0.68 0 0 Z " fill="#126736" transform="translate(449,398)"/>
<path d="M0 0 C2.79872437 2.52788007 4.45773019 4.20411134 5 8 C4.34 8 3.68 8 3 8 C3 7.01 3 6.02 3 5 C2.01 4.67 1.02 4.34 0 4 C-0.33 3.01 -0.66 2.02 -1 1 C-0.67 0.67 -0.34 0.34 0 0 Z " fill="#38964A" transform="translate(633,588)"/>
<path d="M0 0 C2.31 0 4.62 0 7 0 C6.34 1.32 5.68 2.64 5 4 C5 3.34 5 2.68 5 2 C3.35 2.33 1.7 2.66 0 3 C0 2.01 0 1.02 0 0 Z " fill="#1B3B20" transform="translate(467,545)"/>
<path d="M0 0 C0.99 0.495 0.99 0.495 2 1 C2 1.66 2 2.32 2 3 C2.66 3.33 3.32 3.66 4 4 C3.67 4.99 3.34 5.98 3 7 C2.01 6.67 1.02 6.34 0 6 C0 4.02 0 2.04 0 0 Z " fill="#1C7D28" transform="translate(699,516)"/>
<path d="M0 0 C1.485 0.99 1.485 0.99 3 2 C3 2.99 3 3.98 3 5 C3.99 5 4.98 5 6 5 C6 5.66 6 6.32 6 7 C4.35 6.67 2.7 6.34 1 6 C0.67 4.02 0.34 2.04 0 0 Z " fill="#3CA956" transform="translate(317,515)"/>
<path d="M0 0 C0.66 0 1.32 0 2 0 C0.84414715 3.91211733 -0.35534962 6.8745041 -3 10 C-2.49287967 6.28111761 -1.88391785 3.26545761 0 0 Z " fill="#308447" transform="translate(559,429)"/>
<path d="M0 0 C0.77321882 2.98241547 1.41196203 5.97580475 2 9 C1.01 9.495 1.01 9.495 0 10 C-0.19412181 8.52168779 -0.38012131 7.04230684 -0.5625 5.5625 C-0.66691406 4.73878906 -0.77132813 3.91507812 -0.87890625 3.06640625 C-0.91886719 2.38449219 -0.95882813 1.70257813 -1 1 C-0.67 0.67 -0.34 0.34 0 0 Z " fill="#20713F" transform="translate(472,389)"/>
<path d="M0 0 C0.33 0 0.66 0 1 0 C1 5.28 1 10.56 1 16 C0.67 16 0.34 16 0 16 C0 10.72 0 5.44 0 0 Z " fill="#091709" transform="translate(547,526)"/>
<path d="M0 0 C0.33 0 0.66 0 1 0 C1 3.63 1 7.26 1 11 C0.67 11 0.34 11 0 11 C0 7.37 0 3.74 0 0 Z " fill="#020302" transform="translate(785,535)"/>
<path d="M0 0 C3.63 0 7.26 0 11 0 C11 0.33 11 0.66 11 1 C7.37 1 3.74 1 0 1 C0 0.67 0 0.34 0 0 Z " fill="#060805" transform="translate(809,487)"/>
<path d="M0 0 C0.33 0 0.66 0 1 0 C1 3.3 1 6.6 1 10 C0.67 10 0.34 10 0 10 C0 6.7 0 3.4 0 0 Z " fill="#0C1B0C" transform="translate(627,532)"/>
<path d="M0 0 C0.33 0 0.66 0 1 0 C1 2.97 1 5.94 1 9 C0.67 9 0.34 9 0 9 C0 6.03 0 3.06 0 0 Z " fill="#070604" transform="translate(226,537)"/>
<path d="M0 0 C0.66 0 1.32 0 2 0 C1.67 1.65 1.34 3.3 1 5 C0.67 5 0.34 5 0 5 C0 3.35 0 1.7 0 0 Z " fill="#25662A" transform="translate(450,515)"/>
<path d="M0 0 C0.33 0 0.66 0 1 0 C1 2.64 1 5.28 1 8 C0.67 8 0.34 8 0 8 C0 5.36 0 2.72 0 0 Z " fill="#000803" transform="translate(785,482)"/>
<path d="M0 0 C0.66 0 1.32 0 2 0 C2 0.99 2 1.98 2 3 C1.34 3 0.68 3 0 3 C0 2.01 0 1.02 0 0 Z " fill="#419754" transform="translate(511,454)"/>
<path d="M0 0 C1.65 0 3.3 0 5 0 C5 0.33 5 0.66 5 1 C3.35 1 1.7 1 0 1 C0 0.67 0 0.34 0 0 Z " fill="#050605" transform="translate(778,547)"/>
<path d="M0 0 C1.98 0.99 1.98 0.99 4 2 C2.68 1.67 1.36 1.34 0 1 C0 0.67 0 0.34 0 0 Z " fill="#458753" transform="translate(375,544)"/>
<path d="M0 0 C0 3 0 3 0 3 Z " fill="#070A06" transform="translate(704,533)"/>
<path d="M0 0 C1 4 1 4 1 4 Z " fill="#091407" transform="translate(646,494)"/>
<path d="M0 0 C0.66 0 1.32 0 2 0 C1.67 0.99 1.34 1.98 1 3 C0.67 2.01 0.34 1.02 0 0 Z " fill="#0D0E11" transform="translate(567,486)"/>
<path d="M0 0 C4 1 4 1 4 1 Z " fill="#090706" transform="translate(230,469)"/>
<path d="M0 0 C3 1 3 1 3 1 Z " fill="#050603" transform="translate(312,548)"/>
<path d="M0 0 C0.33 0.66 0.66 1.32 1 2 C0.34 1.67 -0.32 1.34 -1 1 C-0.67 0.67 -0.34 0.34 0 0 Z " fill="#102E15" transform="translate(375,539)"/>
<path d="M0 0 C0.66 0.66 1.32 1.32 2 2 C1.34 2 0.68 2 0 2 C0 1.34 0 0.68 0 0 Z " fill="#285431" transform="translate(586,528)"/>
<path d="" fill="#080807" transform="translate(0,0)"/>
<path d="M0 0 C0.33 0.66 0.66 1.32 1 2 C0.34 1.67 -0.32 1.34 -1 1 C-0.67 0.67 -0.34 0.34 0 0 Z " fill="#0F5E3B" transform="translate(508,340)"/>
<path d="" fill="#115739" transform="translate(0,0)"/>
<path d="M0 0 C2 1 2 1 2 1 Z " fill="#0C2A0B" transform="translate(422,548)"/>
<path d="M0 0 C2 1 2 1 2 1 Z " fill="#080806" transform="translate(255,531)"/>
<path d="M0 0 C2 1 2 1 2 1 Z " fill="#0A0A09" transform="translate(245,531)"/>
<path d="M0 0 C2 1 2 1 2 1 Z " fill="#050302" transform="translate(759,529)"/>
<path d="M0 0 C2 1 2 1 2 1 Z " fill="#000202" transform="translate(750,525)"/>
<path d="" fill="#060503" transform="translate(0,0)"/>
<path d="" fill="#113011" transform="translate(0,0)"/>
<path d="M0 0 C2 1 2 1 2 1 Z " fill="#080906" transform="translate(286,516)"/>
<path d="M0 0 C2 1 2 1 2 1 Z " fill="#080A07" transform="translate(285,514)"/>
<path d="M0 0 C2 1 2 1 2 1 Z " fill="#0B0E08" transform="translate(666,509)"/>
<path d="" fill="#144015" transform="translate(0,0)"/>
<path d="M0 0 C2 1 2 1 2 1 Z " fill="#2C602F" transform="translate(593,486)"/>
<path d="" fill="#020705" transform="translate(0,0)"/>
<path d="" fill="#030000" transform="translate(0,0)"/>
<path d="" fill="#000504" transform="translate(0,0)"/>
<path d="M0 0 C2 1 2 1 2 1 Z " fill="#0C0B0B" transform="translate(781,465)"/>
<path d="M0 0 C2 1 2 1 2 1 Z " fill="#0A090A" transform="translate(770,465)"/>
<path d="M0 0 C2 1 2 1 2 1 Z " fill="#033C28" transform="translate(506,316)"/>
<path d="" fill="#429156" transform="translate(0,0)"/>
<path d="" fill="#44A051" transform="translate(0,0)"/>
<path d="" fill="#306336" transform="translate(0,0)"/>
<path d="" fill="#000100" transform="translate(0,0)"/>
<path d="" fill="#012004" transform="translate(0,0)"/>
<path d="" fill="#070505" transform="translate(0,0)"/>
<path d="" fill="#020302" transform="translate(0,0)"/>
<path d="" fill="#050404" transform="translate(0,0)"/>
<path d="" fill="#225028" transform="translate(0,0)"/>
<path d="" fill="#010E05" transform="translate(0,0)"/>
<path d="" fill="#000000" transform="translate(0,0)"/>
<path d="" fill="#050F07" transform="translate(0,0)"/>
<path d="" fill="#000C06" transform="translate(0,0)"/>
<path d="" fill="#000E05" transform="translate(0,0)"/>
<path d="" fill="#1F4326" transform="translate(0,0)"/>
<path d="" fill="#000000" transform="translate(0,0)"/>
<path d="" fill="#050400" transform="translate(0,0)"/>
<path d="" fill="#010103" transform="translate(0,0)"/>
<path d="" fill="#020A07" transform="translate(0,0)"/>
<path d="" fill="#14341A" transform="translate(0,0)"/>
<path d="" fill="#1B4726" transform="translate(0,0)"/>
<path d="" fill="#000B04" transform="translate(0,0)"/>
<path d="" fill="#12301A" transform="translate(0,0)"/>
<path d="" fill="#000003" transform="translate(0,0)"/>
<path d="" fill="#000203" transform="translate(0,0)"/>
<path d="" fill="#010302" transform="translate(0,0)"/>
<path d="" fill="#0E2B14" transform="translate(0,0)"/>
<path d="" fill="#1D4F24" transform="translate(0,0)"/>
<path d="" fill="#000002" transform="translate(0,0)"/>
<path d="" fill="#010403" transform="translate(0,0)"/>
<path d="" fill="#091F0C" transform="translate(0,0)"/>
<path d="" fill="#040606" transform="translate(0,0)"/>
<path d="" fill="#011205" transform="translate(0,0)"/>
<path d="" fill="#030501" transform="translate(0,0)"/>
<path d="" fill="#070506" transform="translate(0,0)"/>
<path d="" fill="#17221C" transform="translate(0,0)"/>
<path d="" fill="#0C1009" transform="translate(0,0)"/>
<path d="" fill="#050D05" transform="translate(0,0)"/>
<path d="" fill="#070506" transform="translate(0,0)"/>
<path d="" fill="#040905" transform="translate(0,0)"/>
<path d="" fill="#080907" transform="translate(0,0)"/>
<path d="" fill="#090908" transform="translate(0,0)"/>
<path d="" fill="#050D04" transform="translate(0,0)"/>
<path d="" fill="#000208" transform="translate(0,0)"/>
<path d="" fill="#000003" transform="translate(0,0)"/>
<path d="" fill="#000206" transform="translate(0,0)"/>
<path d="" fill="#040506" transform="translate(0,0)"/>
<path d="" fill="#194A24" transform="translate(0,0)"/>
<path d="" fill="#000004" transform="translate(0,0)"/>
<path d="" fill="#000003" transform="translate(0,0)"/>
<path d="" fill="#000001" transform="translate(0,0)"/>
<path d="" fill="#030106" transform="translate(0,0)"/>
<path d="" fill="#000001" transform="translate(0,0)"/>
<path d="" fill="#376B3C" transform="translate(0,0)"/>
<path d="" fill="#0F0D0A" transform="translate(0,0)"/>
<path d="" fill="#2D5C2E" transform="translate(0,0)"/>
<path d="" fill="#234E27" transform="translate(0,0)"/>
<path d="" fill="#1A4020" transform="translate(0,0)"/>
<path d="" fill="#20611E" transform="translate(0,0)"/>
<path d="" fill="#000000" transform="translate(0,0)"/>
<path d="" fill="#0C1F0C" transform="translate(0,0)"/>
<path d="" fill="#368340" transform="translate(0,0)"/>
<path d="" fill="#060406" transform="translate(0,0)"/>
<path d="" fill="#215E20" transform="translate(0,0)"/>
<path d="" fill="#000004" transform="translate(0,0)"/>
<path d="" fill="#020300" transform="translate(0,0)"/>
<path d="" fill="#020204" transform="translate(0,0)"/>
<path d="" fill="#020204" transform="translate(0,0)"/>
<path d="" fill="#000002" transform="translate(0,0)"/>
<path d="" fill="#2D5D2A" transform="translate(0,0)"/>
<path d="" fill="#030205" transform="translate(0,0)"/>
<path d="" fill="#010205" transform="translate(0,0)"/>
<path d="" fill="#0C0C07" transform="translate(0,0)"/>
<path d="" fill="#040208" transform="translate(0,0)"/>
<path d="" fill="#030306" transform="translate(0,0)"/>
<path d="" fill="#020206" transform="translate(0,0)"/>
<path d="" fill="#030208" transform="translate(0,0)"/>
<path d="" fill="#030507" transform="translate(0,0)"/>
<path d="" fill="#092308" transform="translate(0,0)"/>
<path d="" fill="#193618" transform="translate(0,0)"/>
<path d="" fill="#091109" transform="translate(0,0)"/>
<path d="" fill="#102716" transform="translate(0,0)"/>
<path d="" fill="#0A0806" transform="translate(0,0)"/>
<path d="" fill="#020608" transform="translate(0,0)"/>
<path d="" fill="#020506" transform="translate(0,0)"/>
<path d="" fill="#020100" transform="translate(0,0)"/>
<path d="" fill="#09200B" transform="translate(0,0)"/>
<path d="" fill="#040F06" transform="translate(0,0)"/>
<path d="" fill="#09190C" transform="translate(0,0)"/>
<path d="" fill="#010505" transform="translate(0,0)"/>
<path d="" fill="#0D110C" transform="translate(0,0)"/>
<path d="" fill="#041308" transform="translate(0,0)"/>
<path d="" fill="#122511" transform="translate(0,0)"/>
<path d="" fill="#1B4621" transform="translate(0,0)"/>
<path d="" fill="#030905" transform="translate(0,0)"/>
<path d="" fill="#080408" transform="translate(0,0)"/>
<path d="" fill="#05180B" transform="translate(0,0)"/>
<path d="" fill="#0C2212" transform="translate(0,0)"/>
<path d="" fill="#000002" transform="translate(0,0)"/>
<path d="" fill="#183118" transform="translate(0,0)"/>
<path d="" fill="#090509" transform="translate(0,0)"/>
<path d="" fill="#0B2212" transform="translate(0,0)"/>
<path d="" fill="#112A18" transform="translate(0,0)"/>
<path d="" fill="#030303" transform="translate(0,0)"/>
<path d="" fill="#000903" transform="translate(0,0)"/>
<path d="" fill="#224424" transform="translate(0,0)"/>
<path d="" fill="#091A0E" transform="translate(0,0)"/>
<path d="" fill="#040904" transform="translate(0,0)"/>
<path d="" fill="#050308" transform="translate(0,0)"/>
<path d="" fill="#050A06" transform="translate(0,0)"/>
<path d="" fill="#040404" transform="translate(0,0)"/>
<path d="" fill="#2F5D33" transform="translate(0,0)"/>
<path d="" fill="#081F10" transform="translate(0,0)"/>
<path d="" fill="#050508" transform="translate(0,0)"/>
<path d="" fill="#060E08" transform="translate(0,0)"/>
<path d="" fill="#1E3D25" transform="translate(0,0)"/>
<path d="" fill="#040507" transform="translate(0,0)"/>
<path d="" fill="#315F2E" transform="translate(0,0)"/>
<path d="" fill="#070809" transform="translate(0,0)"/>
<path d="" fill="#101D11" transform="translate(0,0)"/>
<path d="" fill="#102F1A" transform="translate(0,0)"/>
<path d="" fill="#030203" transform="translate(0,0)"/>
<path d="" fill="#080908" transform="translate(0,0)"/>
<path d="" fill="#29442B" transform="translate(0,0)"/>
<path d="" fill="#040306" transform="translate(0,0)"/>
<path d="" fill="#020805" transform="translate(0,0)"/>
<path d="" fill="#080807" transform="translate(0,0)"/>
<path d="" fill="#070606" transform="translate(0,0)"/>
<path d="" fill="#050506" transform="translate(0,0)"/>
<path d="" fill="#000304" transform="translate(0,0)"/>
<path d="" fill="#040301" transform="translate(0,0)"/>
<path d="" fill="#060605" transform="translate(0,0)"/>
<path d="" fill="#3F9951" transform="translate(0,0)"/>
<path d="" fill="#3C964F" transform="translate(0,0)"/>
<path d="" fill="#07230F" transform="translate(0,0)"/>
<path d="" fill="#3B924E" transform="translate(0,0)"/>
<path d="" fill="#2B8043" transform="translate(0,0)"/>
<path d="" fill="#358249" transform="translate(0,0)"/>
<path d="" fill="#146534" transform="translate(0,0)"/>
<path d="" fill="#0F5935" transform="translate(0,0)"/>
<path d="" fill="#106337" transform="translate(0,0)"/>
<path d="" fill="#175C39" transform="translate(0,0)"/>
<path d="" fill="#0E5F37" transform="translate(0,0)"/>
<path d="" fill="#0B5B39" transform="translate(0,0)"/>
<path d="" fill="#004A2B" transform="translate(0,0)"/>
<path d="" fill="#004324" transform="translate(0,0)"/>
<path d="" fill="#034A2D" transform="translate(0,0)"/>
<path d="" fill="#003F23" transform="translate(0,0)"/>
<path d="" fill="#04442F" transform="translate(0,0)"/>
<path d="" fill="#003C23" transform="translate(0,0)"/>
<path d="" fill="#003A25" transform="translate(0,0)"/>
<path d="" fill="#023D2A" transform="translate(0,0)"/>
<path d="" fill="#003824" transform="translate(0,0)"/>
<path d="" fill="#003727" transform="translate(0,0)"/>
<path d="" fill="#00392A" transform="translate(0,0)"/>
</svg>
